<svg xmlns="http://www.w3.org/2000/svg" xmlns:xlink="http://www.w3.org/1999/xlink" width="350" zoomAndPan="magnify" viewBox="0 0 262.5 204.749995" height="273" preserveAspectRatio="xMidYMid meet" version="1.0"><defs><g/><clipPath id="2773773503"><path d="M 70 0.0703125 L 203 0.0703125 L 203 149 L 70 149 Z M 70 0.0703125 " clip-rule="nonzero"/></clipPath></defs><path fill="#5fa8d6" d="M 135.644531 3.097656 C 111.097656 0.839844 89.507812 18.550781 87.429688 42.652344 C 85.335938 66.753906 103.550781 88.128906 128.082031 90.390625 C 152.628906 92.648438 174.214844 74.933594 176.292969 50.835938 C 178.390625 26.71875 160.191406 5.355469 135.644531 3.097656 Z M 135.644531 3.097656 " fill-opacity="1" fill-rule="nonzero"/><path fill="#74b08b" d="M 154.339844 24.8125 C 155.839844 27.695312 159.503906 31.3125 163.230469 33.265625 C 166.15625 34.804688 171.847656 37.351562 175.941406 40.425781 C 174.136719 28.863281 167.707031 18.597656 158.417969 11.742188 C 157.441406 12.609375 156.144531 13.410156 155.042969 12.992188 C 152.914062 12.175781 150.308594 11.070312 149.222656 13.378906 C 148.132812 15.683594 149.558594 16.003906 145.992188 17.894531 C 142.425781 19.78125 140.410156 21.402344 141.289062 22.839844 C 142.167969 24.28125 144.648438 23.945312 147.910156 22.714844 C 151.171875 21.464844 152.820312 21.929688 154.339844 24.8125 Z M 154.339844 24.8125 " fill-opacity="1" fill-rule="nonzero"/><path fill="#74b08b" d="M 176.40625 44.910156 C 175.464844 44.125 173.609375 43.226562 171.128906 45.117188 C 167.417969 47.9375 162.765625 50.960938 163.773438 54.515625 C 164.78125 58.074219 165.5 62.21875 162.414062 63.726562 C 159.328125 65.230469 149.941406 68.320312 151.058594 71.332031 C 152.179688 74.34375 154.417969 75.351562 152.691406 77.160156 C 151.125 78.8125 148.085938 83.597656 155.554688 84.078125 C 167.003906 77.097656 175.0625 65.085938 176.292969 50.835938 C 176.46875 48.832031 176.503906 46.863281 176.40625 44.910156 Z M 176.40625 44.910156 " fill-opacity="1" fill-rule="nonzero"/><path fill="#74b08b" d="M 128.609375 11.054688 C 125.679688 10.414062 121.09375 7.867188 118.644531 4.761719 C 105.707031 8.605469 95.152344 18.132812 90.246094 30.65625 C 91.683594 33.15625 94.882812 38.117188 97.570312 37.671875 C 101.152344 37.078125 99.632812 34.277344 98.320312 31.808594 C 97.023438 29.34375 97.296875 26.285156 99.664062 26.492188 C 102.03125 26.71875 113.734375 25.933594 117 21.753906 C 120.261719 17.574219 121.058594 16.355469 124.226562 16.820312 C 127.394531 17.300781 128.816406 16.195312 129.695312 14.675781 C 130.558594 13.152344 132 11.792969 128.609375 11.054688 Z M 128.609375 11.054688 " fill-opacity="1" fill-rule="nonzero"/><path fill="#74b08b" d="M 111.65625 66.09375 C 108.378906 66.128906 107.273438 65.855469 105.996094 62.859375 C 104.734375 59.867188 105.835938 58.761719 101.34375 58.199219 C 96.863281 57.65625 95.25 58.824219 93.90625 55.894531 C 92.5625 52.964844 91.972656 52.132812 90.644531 52.851562 C 89.84375 53.300781 88.710938 52.964844 87.78125 53.125 C 89.539062 64.300781 95.632812 74.261719 104.429688 81.085938 C 104.621094 80.21875 105.292969 79.195312 107.066406 78.28125 C 111.113281 76.183594 113.367188 74.328125 114.105469 70.691406 C 114.839844 67.039062 114.917969 66.0625 111.65625 66.09375 Z M 111.65625 66.09375 " fill-opacity="1" fill-rule="nonzero"/><path fill="#ffffff" d="M 118.996094 22.457031 C 114.726562 22.265625 111.015625 27.582031 110.714844 34.339844 C 110.539062 38.261719 111.546875 41.800781 113.257812 44.125 C 115.320312 44.539062 117.542969 45.324219 118.917969 46.847656 C 122.738281 46.222656 125.875 41.226562 126.160156 35.027344 C 126.480469 28.269531 123.265625 22.648438 118.996094 22.457031 Z M 118.996094 22.457031 " fill-opacity="1" fill-rule="nonzero"/><path fill="#f9ebd5" d="M 202.425781 91.878906 C 202.265625 89.445312 199.304688 88.804688 199.304688 88.804688 C 199.691406 88.050781 199.609375 84.703125 194.636719 84.351562 C 189.679688 84 187.886719 83.132812 185.25 81.996094 C 182.613281 80.859375 179.828125 80.941406 178.902344 81.210938 C 178.039062 80.316406 175.496094 77.625 171.722656 79.996094 C 167.851562 82.429688 167.324219 86.304688 168.042969 88.066406 C 168.617188 89.507812 170.425781 90.726562 171.929688 91.238281 C 171.929688 91.238281 171.496094 93.800781 173.351562 96.042969 C 175.207031 98.285156 175.765625 99.371094 175.878906 102.238281 C 176.007812 105.121094 177.191406 106.722656 179.539062 107.074219 C 181.890625 107.425781 185.730469 103.359375 182.386719 97.753906 C 184.148438 97.675781 187.824219 98.636719 190.863281 100.09375 C 193.902344 101.550781 197.644531 101.40625 198.9375 99.421875 C 200.234375 97.433594 199.003906 95.527344 199.003906 95.527344 C 200.699219 95.335938 202.601562 94.3125 202.425781 91.878906 Z M 202.425781 91.878906 " fill-opacity="1" fill-rule="nonzero"/><path fill="#f9ebd5" d="M 123.394531 125.972656 C 124.402344 124.210938 125.792969 118.703125 117.460938 119.039062 C 108.042969 119.421875 106.90625 121.390625 106.714844 122.289062 C 106.15625 124.851562 107.484375 126.371094 107.484375 126.371094 C 107.484375 126.371094 97.425781 121.617188 90.085938 126.804688 C 88.515625 127.910156 87.300781 129.414062 86.566406 131.097656 C 85.863281 132.714844 85.605469 134.492188 85.894531 136.269531 C 85.0625 138.0625 83.574219 142.785156 89.414062 145.574219 C 97.214844 149.289062 112.058594 148.054688 117.125 144.355469 C 120.164062 144.261719 125.234375 143.347656 126.5625 140.242188 C 127.457031 138.140625 126.882812 135.851562 126.402344 134.570312 C 126.738281 130.824219 123.394531 125.972656 123.394531 125.972656 Z M 123.394531 125.972656 " fill-opacity="1" fill-rule="nonzero"/><path fill="#f9ebd5" d="M 170.363281 131.59375 C 169.625 129.910156 168.410156 128.40625 166.84375 127.300781 C 159.503906 122.113281 149.445312 126.867188 149.445312 126.867188 C 149.445312 126.867188 150.773438 125.347656 150.210938 122.785156 C 150.019531 121.90625 148.886719 119.917969 139.464844 119.535156 C 131.117188 119.199219 132.527344 124.707031 133.535156 126.46875 C 133.535156 126.46875 130.191406 131.320312 130.527344 135.066406 C 130.0625 136.347656 129.488281 138.640625 130.367188 140.738281 C 131.695312 143.84375 136.761719 144.757812 139.800781 144.851562 C 144.855469 148.535156 159.695312 149.785156 167.515625 146.070312 C 173.351562 143.300781 171.863281 138.558594 171.035156 136.765625 C 171.320312 134.988281 171.066406 133.210938 170.363281 131.59375 Z M 170.363281 131.59375 " fill-opacity="1" fill-rule="nonzero"/><path fill="#f9ebd5" d="M 96.769531 35.558594 C 100.972656 31.777344 99.695312 29.359375 98.160156 28.878906 C 96.433594 28.335938 96.785156 29.535156 94.707031 30.433594 C 93.554688 30.929688 92.339844 31.234375 91.460938 30.03125 C 90.4375 28.640625 92.628906 25.242188 94.738281 24.621094 C 95.25 26.605469 96.59375 28.75 98.257812 28.605469 C 99.3125 28.558594 101.167969 27.4375 101.613281 23.226562 C 102.078125 19.015625 99.582031 16.050781 97.9375 15.652344 C 96.289062 15.25 93.203125 15.425781 89.796875 17.957031 C 90.933594 13.9375 90.722656 7.675781 89.140625 3.882812 C 87.558594 0.0703125 83.351562 0.359375 82.265625 7.597656 C 81.335938 5.066406 79.035156 2.96875 77.402344 3.082031 C 75.675781 3.207031 74.828125 5.082031 75.226562 8.78125 C 75.757812 13.554688 76.042969 16.261719 75.484375 18.390625 C 74.714844 21.304688 72.492188 23.289062 71.46875 26.574219 C 70.671875 29.152344 70.429688 32.371094 72.605469 33.828125 C 71.535156 35.699219 71.660156 39.480469 76.761719 41.449219 C 81.863281 43.417969 84.121094 41.609375 84.839844 39.191406 C 87.75 39.367188 92.738281 39.175781 96.769531 35.558594 Z M 96.769531 35.558594 " fill-opacity="1" fill-rule="nonzero"/><g clip-path="url(#2773773503)"><path fill="#4b260c" d="M 202.921875 91.847656 C 202.777344 89.699219 200.859375 88.789062 199.914062 88.46875 C 199.996094 87.859375 199.882812 87.042969 199.464844 86.289062 C 198.90625 85.296875 197.628906 84.0625 194.667969 83.871094 C 190.046875 83.550781 188.289062 82.78125 185.839844 81.726562 L 185.457031 81.550781 C 182.851562 80.410156 180.230469 80.460938 179.0625 80.683594 C 176.964844 78.585938 174.742188 78.042969 172.441406 79.066406 C 170.296875 77.226562 168.667969 75.609375 167.453125 74.292969 C 169.515625 71.714844 171.257812 68.929688 172.679688 65.984375 C 172.710938 65.917969 172.746094 65.855469 172.777344 65.773438 C 172.90625 65.503906 173.03125 65.230469 173.144531 64.972656 C 173.207031 64.832031 173.273438 64.6875 173.335938 64.542969 C 173.417969 64.367188 173.480469 64.207031 173.558594 64.03125 C 174.742188 61.226562 175.625 58.3125 176.183594 55.300781 C 176.199219 55.253906 176.199219 55.191406 176.214844 55.140625 C 176.261719 54.871094 176.3125 54.597656 176.359375 54.324219 C 176.375 54.179688 176.40625 54.035156 176.421875 53.910156 C 176.453125 53.683594 176.488281 53.460938 176.519531 53.234375 C 176.550781 53.027344 176.566406 52.820312 176.597656 52.613281 C 176.613281 52.4375 176.648438 52.257812 176.664062 52.082031 C 176.710938 51.714844 176.742188 51.347656 176.773438 50.960938 C 176.773438 50.945312 176.773438 50.914062 176.773438 50.898438 C 176.804688 50.433594 176.839844 49.984375 176.871094 49.519531 C 176.871094 49.425781 176.886719 49.3125 176.886719 49.21875 C 176.902344 48.816406 176.917969 48.433594 176.933594 48.03125 C 176.933594 47.96875 176.933594 47.886719 176.933594 47.824219 C 176.949219 46.863281 176.933594 45.902344 176.886719 44.957031 C 176.886719 44.941406 176.886719 44.925781 176.886719 44.910156 L 176.902344 44.667969 C 176.839844 43.613281 176.742188 42.570312 176.613281 41.546875 L 176.628906 41.5625 L 176.4375 40.34375 C 176.421875 40.21875 176.390625 40.105469 176.375 39.976562 C 176.359375 39.832031 176.328125 39.6875 176.292969 39.542969 C 176.261719 39.320312 176.214844 39.097656 176.167969 38.886719 C 176.136719 38.742188 176.117188 38.617188 176.085938 38.472656 C 176.039062 38.261719 176.007812 38.054688 175.957031 37.847656 C 175.925781 37.6875 175.894531 37.527344 175.847656 37.367188 C 175.816406 37.191406 175.765625 37.03125 175.71875 36.855469 C 175.671875 36.644531 175.625 36.4375 175.558594 36.246094 C 175.527344 36.132812 175.496094 36.019531 175.464844 35.910156 C 175.398438 35.652344 175.320312 35.378906 175.238281 35.125 C 175.222656 35.078125 175.207031 35.027344 175.191406 34.980469 C 173.480469 29.085938 170.554688 23.640625 166.683594 18.949219 C 166.636719 18.886719 166.570312 18.820312 166.523438 18.757812 C 166.378906 18.582031 166.21875 18.40625 166.074219 18.230469 C 165.949219 18.085938 165.835938 17.941406 165.707031 17.796875 C 165.628906 17.703125 165.546875 17.605469 165.453125 17.523438 C 165.261719 17.300781 165.050781 17.09375 164.859375 16.882812 C 164.84375 16.867188 164.828125 16.851562 164.828125 16.835938 C 162.957031 14.835938 160.894531 12.992188 158.671875 11.34375 L 158.351562 11.101562 L 158.335938 11.101562 C 151.957031 6.445312 144.199219 3.382812 135.691406 2.601562 C 123.523438 1.480469 111.722656 5.128906 102.460938 12.882812 C 101.359375 13.808594 100.304688 14.785156 99.296875 15.796875 C 98.878906 15.476562 98.449219 15.265625 98.046875 15.15625 C 97.183594 14.945312 94.289062 14.5 90.5625 16.804688 C 91.394531 12.625 91.027344 7.117188 89.589844 3.671875 C 88.820312 1.832031 87.429688 0.789062 85.957031 0.964844 C 84.199219 1.191406 82.792969 3.03125 82.054688 6.011719 C 80.855469 3.976562 78.890625 2.472656 77.355469 2.585938 C 76.636719 2.632812 76.027344 2.9375 75.578125 3.496094 C 74.734375 4.503906 74.460938 6.316406 74.734375 8.828125 C 75.246094 13.425781 75.546875 16.195312 75.003906 18.261719 C 74.636719 19.65625 73.902344 20.855469 73.132812 22.105469 C 72.332031 23.402344 71.519531 24.730469 70.992188 26.414062 C 69.933594 29.824219 70.285156 32.53125 71.964844 33.972656 C 71.46875 35.09375 71.421875 36.453125 71.871094 37.703125 C 72.191406 38.617188 72.894531 39.769531 74.378906 40.792969 C 74.445312 44.636719 75.722656 48 78.105469 50.578125 C 80.953125 53.636719 84.757812 55.046875 87.75 55.703125 C 89.957031 65.871094 95.699219 74.953125 104.109375 81.484375 L 104.734375 81.964844 L 104.734375 81.933594 C 107.753906 84.207031 111.082031 86.113281 114.664062 87.585938 L 111.703125 119.085938 C 108.347656 119.679688 106.539062 120.703125 106.21875 122.175781 C 105.933594 123.523438 106.109375 124.609375 106.394531 125.378906 C 103.390625 124.257812 95.792969 122.144531 89.796875 126.386719 C 88.164062 127.542969 86.886719 129.09375 86.101562 130.886719 C 85.351562 132.601562 85.109375 134.410156 85.367188 136.1875 C 84.871094 137.308594 84.214844 139.328125 84.824219 141.425781 C 85.382812 143.347656 86.839844 144.902344 89.1875 146.003906 C 92.308594 147.496094 96.769531 148.296875 101.664062 148.296875 C 102.527344 148.296875 103.421875 148.261719 104.316406 148.214844 C 109.578125 147.910156 114.167969 146.773438 116.839844 145.125 C 116.839844 145.125 116.855469 145.125 116.855469 145.125 C 116.886719 145.109375 116.902344 145.09375 116.933594 145.058594 C 117.046875 144.980469 117.175781 144.917969 117.285156 144.835938 C 118.933594 144.773438 125.378906 144.242188 127.007812 140.417969 C 127.953125 138.207031 127.394531 135.851562 126.898438 134.476562 C 127.136719 131.0625 124.65625 126.980469 123.953125 125.921875 C 124.003906 125.8125 124.050781 125.699219 124.113281 125.585938 C 124.128906 125.570312 124.144531 125.539062 124.144531 125.523438 C 124.179688 125.476562 124.179688 125.425781 124.195312 125.378906 C 124.675781 124.144531 124.960938 122.351562 124.050781 120.863281 C 123.21875 119.503906 121.605469 118.734375 119.238281 118.558594 L 121.941406 89.910156 C 123.921875 90.355469 125.9375 90.691406 128.015625 90.886719 C 128.992188 90.980469 129.984375 91.03125 130.957031 91.0625 C 132.621094 91.109375 134.269531 91.0625 135.898438 90.933594 L 136.972656 119.117188 C 134.972656 119.390625 133.582031 120.125 132.84375 121.359375 C 131.933594 122.847656 132.238281 124.644531 132.703125 125.875 C 132.71875 125.921875 132.71875 125.972656 132.75 126.019531 C 132.765625 126.050781 132.78125 126.066406 132.78125 126.082031 C 132.828125 126.195312 132.878906 126.324219 132.941406 126.421875 C 132.253906 127.476562 129.773438 131.5625 130 134.972656 C 129.503906 136.332031 128.960938 138.703125 129.886719 140.914062 C 131.519531 144.742188 137.964844 145.269531 139.609375 145.332031 C 139.722656 145.414062 139.851562 145.492188 139.960938 145.558594 C 139.992188 145.574219 140.011719 145.589844 140.042969 145.621094 C 140.042969 145.621094 140.058594 145.621094 140.058594 145.621094 C 142.710938 147.269531 147.316406 148.40625 152.578125 148.710938 C 153.476562 148.761719 154.355469 148.792969 155.234375 148.792969 C 160.144531 148.792969 164.589844 147.992188 167.707031 146.5 C 170.058594 145.378906 171.511719 143.84375 172.074219 141.921875 C 172.679688 139.824219 172.023438 137.804688 171.527344 136.683594 C 171.785156 134.90625 171.546875 133.097656 170.792969 131.382812 C 170.011719 129.589844 168.730469 128.039062 167.097656 126.882812 C 161.101562 122.640625 153.507812 124.753906 150.5 125.875 C 150.773438 125.105469 150.964844 124.019531 150.675781 122.671875 C 150.339844 121.085938 148.277344 120.03125 144.441406 119.453125 L 143.320312 89.730469 C 148.917969 88.339844 154.210938 85.871094 158.945312 82.398438 C 158.976562 82.367188 159.023438 82.351562 159.054688 82.316406 C 159.34375 82.109375 159.617188 81.902344 159.886719 81.691406 C 159.953125 81.644531 160.03125 81.582031 160.09375 81.53125 C 160.351562 81.324219 160.621094 81.117188 160.878906 80.910156 C 160.925781 80.859375 160.976562 80.828125 161.023438 80.78125 C 161.101562 80.714844 161.167969 80.652344 161.246094 80.605469 C 161.597656 80.316406 161.933594 80.011719 162.285156 79.707031 C 163.644531 81.148438 165.371094 82.832031 167.53125 84.6875 C 167.148438 86.082031 167.226562 87.378906 167.578125 88.273438 C 168.1875 89.765625 169.867188 90.980469 171.386719 91.589844 C 171.335938 92.453125 171.402344 94.503906 172.953125 96.378906 C 174.742188 98.554688 175.253906 99.53125 175.367188 102.289062 C 175.496094 105.410156 176.871094 107.203125 179.445312 107.585938 C 179.621094 107.621094 179.796875 107.621094 179.972656 107.605469 C 181.109375 107.539062 182.324219 106.753906 183.15625 105.523438 C 183.8125 104.546875 185.058594 101.949219 183.234375 98.285156 C 185.011719 98.460938 187.953125 99.261719 190.640625 100.542969 C 194.0625 102.191406 197.964844 101.808594 199.355469 99.691406 C 200.347656 98.171875 200.042969 96.714844 199.738281 95.898438 C 201.496094 95.496094 203.097656 94.265625 202.921875 91.847656 Z M 126.097656 140.03125 C 125.105469 142.386719 121.476562 143.492188 118.261719 143.78125 C 118.660156 143.203125 118.804688 142.738281 118.804688 142.707031 C 118.886719 142.449219 118.726562 142.160156 118.46875 142.097656 C 118.214844 142.019531 117.925781 142.179688 117.84375 142.433594 C 117.84375 142.449219 117.511719 143.523438 116.308594 144.292969 C 110.96875 147.589844 97.058594 148.648438 89.621094 145.109375 C 87.542969 144.117188 86.261719 142.785156 85.78125 141.152344 C 85.445312 140.015625 85.574219 138.878906 85.796875 137.949219 C 86.503906 139.9375 88.085938 142.257812 91.636719 143.601562 C 94.929688 144.851562 98.398438 145.460938 101.886719 145.460938 C 107.257812 145.460938 112.679688 144.003906 117.636719 141.152344 C 117.636719 141.152344 117.636719 141.152344 117.652344 141.152344 C 117.6875 141.136719 117.71875 141.121094 117.765625 141.089844 C 122.433594 140.496094 125.105469 139.054688 126.386719 136.429688 C 126.59375 137.535156 126.625 138.832031 126.097656 140.03125 Z M 123.234375 121.390625 C 123.988281 122.625 123.652344 124.195312 123.234375 125.1875 C 121.714844 127.925781 118.4375 127.414062 118.277344 127.382812 C 118.003906 127.332031 117.75 127.507812 117.703125 127.78125 C 117.652344 128.054688 117.828125 128.308594 118.101562 128.359375 C 118.117188 128.359375 118.453125 128.421875 118.980469 128.421875 C 120.070312 128.421875 121.941406 128.183594 123.316406 126.757812 C 124.257812 128.277344 126.898438 132.953125 125.585938 135.851562 C 124.609375 138.03125 122.5 139.3125 118.820312 139.9375 C 119.398438 138.976562 119.507812 138 119.507812 137.933594 C 119.539062 137.660156 119.332031 137.421875 119.0625 137.390625 C 118.789062 137.359375 118.550781 137.566406 118.515625 137.839844 C 118.515625 137.855469 118.324219 139.488281 117.140625 140.320312 C 109.226562 144.867188 100.078125 145.734375 92.003906 142.691406 C 88.292969 141.296875 86.964844 138.71875 86.503906 136.8125 C 86.054688 134.988281 86.230469 133.082031 87.015625 131.304688 C 87.71875 129.6875 88.886719 128.261719 90.371094 127.222656 C 92.851562 125.476562 95.664062 124.898438 98.289062 124.898438 C 101.902344 124.898438 105.132812 125.972656 106.523438 126.515625 C 109.449219 127.941406 110.523438 130.777344 110.539062 130.808594 C 110.617188 131.015625 110.808594 131.128906 111 131.128906 C 111.066406 131.128906 111.113281 131.113281 111.175781 131.097656 C 111.433594 131 111.5625 130.710938 111.464844 130.457031 C 111.417969 130.34375 110.488281 127.878906 107.980469 126.195312 L 107.851562 126.035156 C 107.804688 125.988281 106.699219 124.644531 107.195312 122.382812 C 107.308594 121.855469 108.011719 120.800781 111.609375 120.125 L 111.480469 121.40625 C 111.289062 123.457031 112.792969 125.285156 114.839844 125.476562 C 114.953125 125.492188 115.078125 125.492188 115.191406 125.492188 C 117.09375 125.492188 118.726562 124.035156 118.902344 122.097656 L 119.140625 119.550781 C 121.1875 119.710938 122.578125 120.335938 123.234375 121.390625 Z M 171.113281 138.460938 C 171.351562 139.390625 171.464844 140.527344 171.128906 141.664062 C 170.648438 143.300781 169.371094 144.628906 167.292969 145.621094 C 159.855469 149.160156 145.925781 148.101562 140.601562 144.804688 C 139.402344 144.035156 139.066406 142.960938 139.066406 142.945312 C 138.988281 142.691406 138.714844 142.53125 138.441406 142.609375 C 138.1875 142.691406 138.027344 142.960938 138.105469 143.21875 C 138.121094 143.25 138.25 143.714844 138.652344 144.292969 C 135.4375 144.003906 131.820312 142.898438 130.816406 140.542969 C 130.304688 139.34375 130.320312 138.046875 130.511719 136.941406 C 131.789062 139.566406 134.445312 141.007812 139.128906 141.601562 C 139.164062 141.617188 139.195312 141.632812 139.242188 141.664062 C 139.242188 141.664062 139.242188 141.664062 139.257812 141.664062 C 144.214844 144.515625 149.636719 145.972656 155.011719 145.972656 C 158.496094 145.972656 161.964844 145.363281 165.261719 144.117188 C 168.8125 142.769531 170.410156 140.449219 171.113281 138.460938 Z M 149.714844 122.882812 C 150.210938 125.140625 149.109375 126.484375 149.0625 126.53125 L 148.933594 126.691406 C 146.421875 128.359375 145.480469 130.839844 145.445312 130.953125 C 145.351562 131.207031 145.480469 131.496094 145.734375 131.59375 C 145.800781 131.609375 145.847656 131.625 145.910156 131.625 C 146.117188 131.625 146.3125 131.496094 146.375 131.304688 C 146.390625 131.273438 147.460938 128.4375 150.386719 127.011719 C 151.78125 126.46875 155.011719 125.394531 158.625 125.394531 C 161.246094 125.394531 164.078125 125.957031 166.539062 127.71875 C 168.027344 128.773438 169.179688 130.183594 169.898438 131.800781 C 170.683594 133.578125 170.859375 135.5 170.410156 137.308594 C 169.945312 139.214844 168.617188 141.792969 164.910156 143.1875 C 156.832031 146.230469 147.6875 145.363281 139.769531 140.816406 C 138.585938 139.984375 138.394531 138.351562 138.394531 138.335938 C 138.363281 138.0625 138.121094 137.855469 137.851562 137.886719 C 137.578125 137.917969 137.371094 138.160156 137.402344 138.429688 C 137.402344 138.496094 137.515625 139.472656 138.089844 140.433594 C 134.414062 139.808594 132.300781 138.511719 131.328125 136.347656 C 130.015625 133.449219 132.652344 128.773438 133.597656 127.253906 C 134.972656 128.695312 136.84375 128.917969 137.929688 128.917969 C 138.457031 128.917969 138.792969 128.871094 138.808594 128.855469 C 139.082031 128.804688 139.257812 128.550781 139.210938 128.277344 C 139.164062 128.003906 138.90625 127.828125 138.632812 127.878906 C 138.492188 127.910156 135.195312 128.40625 133.675781 125.683594 C 133.261719 124.691406 132.941406 123.121094 133.675781 121.886719 C 134.238281 120.960938 135.371094 120.367188 137.003906 120.144531 L 137.082031 122.417969 C 137.164062 124.433594 138.808594 126.019531 140.808594 126.019531 C 140.859375 126.019531 140.90625 126.019531 140.953125 126.019531 C 143.015625 125.941406 144.617188 124.210938 144.535156 122.144531 L 144.472656 120.496094 C 148.789062 121.152344 149.605469 122.320312 149.714844 122.882812 Z M 157.984375 81.886719 C 157.761719 82.046875 157.535156 82.207031 157.3125 82.351562 C 157.105469 82.492188 156.914062 82.621094 156.703125 82.765625 C 156.625 82.8125 156.546875 82.878906 156.464844 82.925781 C 156.128906 83.152344 155.792969 83.359375 155.441406 83.566406 C 153.15625 83.390625 151.746094 82.78125 151.347656 81.789062 C 150.804688 80.394531 152.226562 78.378906 153.042969 77.511719 C 154.433594 76.039062 153.667969 74.855469 152.835938 73.605469 C 152.386719 72.933594 151.890625 72.164062 151.507812 71.15625 C 150.773438 69.1875 156.882812 66.625 160.160156 65.246094 C 161.152344 64.832031 162 64.476562 162.621094 64.175781 C 166.058594 62.492188 165.292969 58.054688 164.253906 54.390625 C 163.4375 51.507812 166.957031 48.878906 170.363281 46.335938 C 170.730469 46.0625 171.082031 45.789062 171.433594 45.535156 C 172.457031 44.765625 173.351562 44.492188 174.105469 44.523438 C 174.839844 44.539062 175.445312 44.828125 175.910156 45.179688 C 175.925781 45.644531 175.941406 46.109375 175.941406 46.589844 C 175.941406 46.605469 175.941406 46.605469 175.941406 46.621094 C 175.941406 47.039062 175.941406 47.472656 175.941406 47.886719 C 175.941406 47.96875 175.941406 48.0625 175.941406 48.144531 C 175.925781 48.496094 175.925781 48.847656 175.910156 49.199219 C 175.910156 49.296875 175.894531 49.410156 175.894531 49.503906 C 175.863281 49.9375 175.847656 50.371094 175.800781 50.800781 C 175.800781 50.835938 175.800781 50.851562 175.800781 50.882812 C 175.765625 51.25 175.734375 51.601562 175.6875 51.972656 C 175.671875 52.132812 175.65625 52.292969 175.625 52.453125 C 175.589844 52.675781 175.574219 52.882812 175.542969 53.109375 C 175.511719 53.316406 175.480469 53.507812 175.445312 53.714844 C 175.414062 53.875 175.398438 54.035156 175.367188 54.195312 C 175.320312 54.4375 175.289062 54.675781 175.238281 54.917969 C 175.222656 55.015625 175.207031 55.09375 175.191406 55.191406 C 173.351562 64.8125 168.28125 73.445312 160.621094 79.851562 C 159.792969 80.554688 158.929688 81.230469 158.046875 81.851562 C 158.03125 81.851562 158.015625 81.871094 157.984375 81.886719 Z M 164.140625 17.507812 C 164.15625 17.523438 164.171875 17.558594 164.207031 17.574219 C 164.398438 17.78125 164.574219 17.972656 164.765625 18.183594 C 164.84375 18.277344 164.941406 18.375 165.019531 18.46875 C 165.132812 18.597656 165.246094 18.726562 165.355469 18.855469 C 165.5 19.03125 165.644531 19.191406 165.789062 19.367188 C 165.835938 19.414062 165.867188 19.460938 165.917969 19.511719 C 169.769531 24.15625 172.648438 29.550781 174.3125 35.300781 C 174.328125 35.347656 174.34375 35.414062 174.359375 35.460938 C 174.421875 35.683594 174.488281 35.925781 174.550781 36.148438 C 174.582031 36.277344 174.617188 36.40625 174.648438 36.535156 C 174.695312 36.710938 174.726562 36.886719 174.777344 37.0625 C 174.824219 37.238281 174.871094 37.429688 174.902344 37.621094 C 174.933594 37.75 174.96875 37.894531 175 38.023438 C 175.046875 38.246094 175.09375 38.472656 175.144531 38.695312 C 175.160156 38.808594 175.191406 38.917969 175.207031 39.03125 C 175.222656 39.144531 175.238281 39.238281 175.269531 39.351562 C 172.167969 37.207031 168.441406 35.347656 165.644531 33.957031 C 164.8125 33.539062 164.09375 33.1875 163.46875 32.867188 C 159.984375 31.039062 156.335938 27.582031 154.785156 24.621094 C 153.746094 22.617188 152.5625 21.65625 150.882812 21.609375 C 149.988281 21.578125 148.964844 21.816406 147.75 22.28125 C 144.40625 23.5625 142.375 23.675781 141.738281 22.617188 C 141.609375 22.410156 141.578125 22.183594 141.640625 21.960938 C 141.992188 20.648438 145.207031 18.933594 146.261719 18.375 C 148.804688 17.027344 149.027344 16.355469 149.238281 15.1875 C 149.316406 14.753906 149.398438 14.273438 149.699219 13.617188 C 150.484375 11.9375 152.242188 12.464844 154.65625 13.394531 L 154.898438 13.488281 C 155.921875 13.875 157.121094 13.523438 158.464844 12.417969 C 160.480469 13.9375 162.398438 15.652344 164.140625 17.507812 Z M 120.484375 17.027344 C 120.453125 16.851562 120.308594 16.691406 120.117188 16.644531 C 115.558594 15.492188 112.746094 18.117188 111.464844 19.78125 C 111.289062 20.007812 111.335938 20.3125 111.5625 20.488281 C 111.625 20.535156 111.703125 20.566406 111.785156 20.582031 C 111.960938 20.617188 112.152344 20.550781 112.265625 20.390625 C 113.625 18.597656 116.039062 16.675781 119.796875 17.589844 C 118.980469 18.359375 118.132812 19.445312 116.980469 20.9375 L 116.582031 21.449219 C 114.007812 24.761719 105.613281 25.882812 101.484375 26.011719 C 101.742188 25.292969 101.964844 24.378906 102.078125 23.273438 C 102.398438 20.390625 101.359375 17.941406 100.046875 16.5 C 105.101562 11.375 111.417969 7.484375 118.453125 5.339844 C 121.011719 8.414062 125.523438 10.894531 128.496094 11.535156 C 129.824219 11.824219 130.144531 12.160156 130.222656 12.335938 C 130.351562 12.65625 129.984375 13.25 129.617188 13.808594 C 129.488281 14.003906 129.359375 14.210938 129.246094 14.417969 C 128.542969 15.636719 127.410156 16.804688 124.273438 16.324219 C 122.609375 16.082031 121.523438 16.277344 120.484375 17.027344 Z M 118.550781 29.441406 C 117.925781 29.40625 117.316406 29.566406 116.757812 29.871094 C 117.253906 30.382812 117.542969 31.105469 117.460938 31.875 C 117.332031 33.28125 116.101562 34.324219 114.695312 34.210938 C 114.34375 34.179688 114.023438 34.082031 113.734375 33.941406 C 113.398438 34.949219 113.175781 36.085938 113.128906 37.269531 C 113 40.234375 113.910156 42.859375 115.367188 44.316406 C 114.792969 44.109375 114.214844 43.949219 113.671875 43.835938 C 112.023438 41.609375 111.050781 38.183594 111.226562 34.371094 C 111.511719 27.902344 115 22.777344 118.980469 22.96875 C 119.140625 22.96875 119.316406 23 119.476562 23.019531 C 121.171875 23.289062 122.707031 24.523438 123.875 26.539062 C 125.1875 28.832031 125.824219 31.839844 125.679688 35.027344 C 125.632812 36.019531 125.523438 36.964844 125.328125 37.878906 C 124.945312 39.703125 124.515625 41.882812 122.097656 44.558594 C 121.109375 45.566406 119.972656 46.222656 118.773438 46.398438 C 118.40625 46.0625 118.039062 45.773438 117.652344 45.5 C 117.71875 45.5 117.796875 45.515625 117.863281 45.515625 C 120.660156 45.628906 123.089844 42.136719 123.28125 37.703125 C 123.476562 33.25 121.347656 29.550781 118.550781 29.441406 Z M 86.085938 1.960938 C 87.09375 1.832031 88.085938 2.648438 88.675781 4.058594 C 89.988281 7.226562 90.355469 12.417969 89.636719 16.355469 C 89.589844 16.421875 89.554688 16.5 89.554688 16.582031 C 89.554688 16.597656 89.378906 18.148438 88.566406 19.703125 C 87.222656 19.160156 85.511719 18.597656 83.625 18.292969 C 84.40625 13.585938 83.433594 9.628906 82.761719 7.644531 C 83.351562 3.6875 84.871094 2.105469 86.085938 1.960938 Z M 72.8125 37.367188 C 72.476562 36.4375 72.492188 35.429688 72.8125 34.578125 C 74.398438 35.636719 76.109375 36.019531 76.203125 36.039062 C 76.234375 36.039062 76.269531 36.054688 76.316406 36.054688 C 76.539062 36.054688 76.746094 35.894531 76.796875 35.667969 C 76.859375 35.398438 76.683594 35.140625 76.410156 35.078125 C 76.394531 35.078125 74.714844 34.691406 73.261719 33.683594 L 73.132812 33.601562 C 72.878906 33.425781 72.636719 33.21875 72.414062 32.996094 C 72.382812 32.960938 72.351562 32.929688 72.300781 32.914062 C 70.796875 31.199219 71.519531 28.078125 71.949219 26.734375 C 72.429688 25.164062 73.230469 23.882812 73.980469 22.648438 C 74.796875 21.320312 75.5625 20.070312 75.964844 18.535156 C 76.554688 16.292969 76.234375 13.441406 75.722656 8.734375 C 75.421875 5.929688 75.882812 4.699219 76.347656 4.136719 C 76.621094 3.800781 76.988281 3.625 77.433594 3.59375 C 77.46875 3.59375 77.5 3.59375 77.53125 3.59375 C 78.632812 3.59375 80.3125 4.890625 81.335938 6.746094 C 81.464844 7.035156 83.671875 11.984375 82.632812 18.164062 C 81.578125 18.039062 80.488281 18.003906 79.386719 18.085938 C 79.113281 18.101562 78.90625 18.34375 78.921875 18.613281 C 78.9375 18.886719 79.179688 19.09375 79.449219 19.078125 C 85.253906 18.613281 90.933594 21.945312 90.980469 21.976562 C 91.058594 22.023438 91.140625 22.042969 91.234375 22.042969 C 91.410156 22.042969 91.570312 21.960938 91.667969 21.800781 C 91.8125 21.5625 91.730469 21.257812 91.492188 21.113281 C 91.410156 21.0625 90.660156 20.617188 89.460938 20.085938 C 89.796875 19.429688 90.035156 18.789062 90.195312 18.246094 C 93.234375 16.050781 96.113281 15.699219 97.792969 16.117188 C 99.167969 16.453125 101.519531 19.175781 101.085938 23.144531 C 100.671875 26.957031 99.070312 28.046875 98.175781 28.078125 C 97.039062 28.175781 95.984375 26.78125 95.425781 25.210938 C 95.425781 25.148438 95.425781 25.082031 95.394531 25.019531 C 94.65625 23 95.3125 21 95.328125 20.96875 C 95.425781 20.710938 95.28125 20.421875 95.027344 20.328125 C 94.769531 20.230469 94.480469 20.375 94.386719 20.632812 C 94.355469 20.710938 93.828125 22.328125 94.164062 24.25 C 92.675781 24.890625 91.347656 26.574219 90.882812 27.964844 C 90.5625 28.910156 90.613281 29.710938 91.027344 30.289062 C 92.257812 31.984375 94.097656 31.199219 94.882812 30.863281 C 95.824219 30.464844 96.320312 29.984375 96.6875 29.648438 C 97.136719 29.214844 97.265625 29.101562 98 29.328125 C 98.542969 29.503906 98.945312 29.9375 99.070312 30.511719 C 99.230469 31.234375 99.085938 32.769531 96.433594 35.15625 C 93.746094 37.558594 90.246094 38.742188 86.007812 38.710938 C 85.941406 38.679688 85.863281 38.679688 85.78125 38.679688 C 84.214844 38.824219 81.738281 37.621094 81.722656 37.605469 C 81.480469 37.480469 81.175781 37.589844 81.050781 37.832031 C 80.921875 38.070312 81.03125 38.375 81.273438 38.503906 C 81.351562 38.535156 82.710938 39.207031 84.167969 39.511719 C 83.816406 40.359375 83.257812 40.984375 82.503906 41.355469 C 81.175781 42.011719 79.304688 41.867188 76.921875 40.953125 C 74.78125 40.167969 73.355469 38.902344 72.8125 37.367188 Z M 96.480469 28.542969 C 96.304688 28.65625 96.160156 28.800781 96 28.960938 C 95.664062 29.28125 95.265625 29.648438 94.496094 29.984375 C 93.121094 30.578125 92.402344 30.511719 91.84375 29.742188 C 91.636719 29.457031 91.621094 28.941406 91.828125 28.335938 C 92.242188 27.117188 93.332031 25.835938 94.386719 25.292969 C 94.816406 26.589844 95.554688 27.839844 96.480469 28.542969 Z M 104.203125 80.234375 C 95.9375 73.605469 90.179688 64.15625 88.375 53.574219 C 88.550781 53.574219 88.726562 53.574219 88.917969 53.589844 C 89.605469 53.605469 90.292969 53.636719 90.898438 53.300781 C 91.300781 53.078125 91.492188 53.109375 91.605469 53.140625 C 92.148438 53.316406 92.804688 54.644531 93.472656 56.117188 C 94.5625 58.472656 95.96875 58.503906 98.113281 58.519531 C 98.960938 58.535156 100.03125 58.554688 101.308594 58.695312 C 104.363281 59.066406 104.507812 59.578125 104.925781 61.113281 C 105.070312 61.644531 105.246094 62.300781 105.5625 63.054688 C 106.957031 66.320312 108.347656 66.625 111.6875 66.59375 C 112.921875 66.574219 113.59375 66.71875 113.847656 67.039062 C 114.230469 67.503906 114.023438 68.691406 113.640625 70.59375 C 112.9375 74.101562 110.714844 75.847656 106.859375 77.851562 C 105.53125 78.507812 104.652344 79.324219 104.203125 80.234375 Z M 82.074219 42.617188 C 82.390625 42.539062 82.679688 42.425781 82.96875 42.296875 C 83.992188 41.800781 84.757812 40.90625 85.191406 39.738281 C 85.910156 39.769531 86.597656 39.769531 87.285156 39.71875 C 87.140625 40.679688 87.015625 41.640625 86.933594 42.617188 C 86.789062 44.285156 86.742188 45.949219 86.789062 47.582031 C 85.589844 47.085938 84.457031 46.414062 83.589844 45.484375 C 82.839844 44.683594 82.34375 43.722656 82.074219 42.617188 Z M 128.128906 89.890625 C 119.414062 89.089844 111.480469 85.824219 105.019531 80.875 C 105.324219 80.074219 106.09375 79.355469 107.308594 78.714844 C 111.335938 76.617188 113.816406 74.648438 114.597656 70.773438 C 115.046875 68.53125 115.269531 67.214844 114.597656 66.382812 C 114.121094 65.792969 113.257812 65.566406 111.65625 65.566406 C 108.457031 65.597656 107.59375 65.328125 106.460938 62.636719 C 106.15625 61.933594 105.996094 61.339844 105.867188 60.828125 C 105.355469 58.96875 104.988281 58.121094 101.421875 57.6875 C 100.09375 57.527344 98.992188 57.511719 98.128906 57.496094 C 96 57.464844 95.203125 57.449219 94.386719 55.671875 C 93.378906 53.476562 92.785156 52.453125 91.921875 52.164062 C 91.476562 52.019531 90.980469 52.097656 90.4375 52.402344 C 90.066406 52.613281 89.523438 52.597656 88.964844 52.578125 C 88.726562 52.578125 88.484375 52.5625 88.246094 52.578125 C 87.765625 49.359375 87.667969 46.0625 87.957031 42.683594 C 88.054688 41.660156 88.179688 40.632812 88.339844 39.625 C 91.828125 39.273438 94.769531 38.039062 97.136719 35.925781 C 100.015625 33.347656 100.335938 31.457031 100.078125 30.320312 C 99.949219 29.726562 99.632812 29.230469 99.199219 28.863281 C 99.773438 28.605469 100.496094 28.09375 101.085938 27.003906 C 103.933594 26.941406 109.609375 26.398438 113.671875 24.652344 C 111.753906 26.910156 110.425781 30.382812 110.25 34.308594 C 110.089844 37.925781 110.921875 41.242188 112.390625 43.628906 C 110.488281 43.453125 109.066406 43.738281 109.035156 43.738281 C 108.761719 43.804688 108.585938 44.058594 108.652344 44.332031 C 108.714844 44.605469 108.96875 44.78125 109.242188 44.71875 C 109.5625 44.652344 116.980469 43.164062 120.339844 50.175781 C 120.421875 50.335938 120.5625 50.433594 120.707031 50.449219 C 120.804688 50.464844 120.898438 50.449219 120.996094 50.402344 C 121.25 50.289062 121.347656 49.984375 121.234375 49.730469 C 120.757812 48.738281 120.210938 47.902344 119.605469 47.199219 C 123.394531 46.15625 126.433594 41.160156 126.703125 35.027344 C 126.847656 31.664062 126.160156 28.460938 124.769531 25.996094 C 123.332031 23.464844 121.300781 22.007812 119.046875 21.914062 C 118.453125 21.882812 117.878906 21.960938 117.316406 22.121094 C 117.351562 22.089844 117.367188 22.058594 117.398438 22.023438 L 117.796875 21.511719 C 120.722656 17.75 121.410156 16.867188 124.164062 17.285156 C 127.039062 17.71875 128.929688 16.949219 130.144531 14.882812 C 130.253906 14.691406 130.382812 14.5 130.496094 14.324219 C 130.992188 13.539062 131.519531 12.722656 131.183594 11.9375 C 130.910156 11.28125 130.144531 10.847656 128.75 10.542969 C 126.097656 9.964844 121.988281 7.722656 119.539062 4.984375 C 123.792969 3.800781 128.238281 3.257812 132.765625 3.386719 C 133.726562 3.417969 134.683594 3.464844 135.644531 3.5625 C 143.878906 4.3125 151.378906 7.261719 157.648438 11.742188 C 156.898438 12.304688 156 12.769531 155.265625 12.496094 L 155.027344 12.402344 C 152.929688 11.601562 150.050781 10.496094 148.804688 13.136719 C 148.4375 13.921875 148.339844 14.5 148.261719 14.964844 C 148.117188 15.8125 148.039062 16.242188 145.800781 17.429688 C 142.550781 19.160156 141.015625 20.421875 140.699219 21.625 C 140.554688 22.121094 140.632812 22.617188 140.90625 23.066406 C 142.167969 25.132812 145.621094 24.089844 148.117188 23.144531 C 151.203125 21.960938 152.5625 22.410156 153.921875 25.019531 C 155.554688 28.125 159.375 31.777344 163.023438 33.683594 C 163.644531 34.003906 164.363281 34.371094 165.210938 34.789062 C 168.21875 36.292969 172.328125 38.328125 175.511719 40.679688 C 175.671875 41.753906 175.800781 42.828125 175.878906 43.917969 C 174.726562 43.324219 173 43.066406 170.859375 44.683594 C 170.503906 44.957031 170.152344 45.214844 169.785156 45.484375 C 166.285156 48.097656 162.300781 51.058594 163.324219 54.613281 C 164.269531 57.914062 164.988281 61.882812 162.222656 63.230469 C 161.628906 63.515625 160.78125 63.871094 159.808594 64.285156 C 155.472656 66.113281 149.539062 68.59375 150.613281 71.460938 C 151.027344 72.566406 151.585938 73.414062 152.035156 74.101562 C 152.914062 75.449219 153.171875 75.914062 152.355469 76.777344 C 152.066406 77.082031 149.558594 79.820312 150.453125 82.109375 C 150.898438 83.261719 152.117188 84.015625 154.066406 84.367188 C 146.261719 88.804688 137.308594 90.742188 128.128906 89.890625 Z M 199.128906 95.015625 C 197.945312 93.785156 195.917969 93.382812 193.804688 92.96875 C 192.878906 92.789062 191.933594 92.597656 191.039062 92.328125 C 188.046875 91.460938 186.847656 90.085938 186.816406 90.070312 C 186.640625 89.859375 186.320312 89.828125 186.113281 90.003906 C 185.90625 90.179688 185.875 90.5 186.050781 90.710938 C 186.097656 90.773438 187.425781 92.308594 190.75 93.289062 C 191.679688 93.558594 192.652344 93.75 193.597656 93.945312 C 195.820312 94.390625 197.914062 94.808594 198.746094 96.136719 C 198.988281 96.699219 199.339844 97.914062 198.523438 99.164062 C 197.417969 100.847656 194.011719 101.070312 191.070312 99.660156 C 188.558594 98.460938 185.457031 97.53125 183.394531 97.308594 C 183.394531 97.308594 183.378906 97.308594 183.378906 97.308594 C 182.003906 97.097656 180.46875 97.339844 180.40625 97.355469 C 180.132812 97.402344 179.957031 97.660156 179.988281 97.929688 C 180.035156 98.203125 180.292969 98.394531 180.5625 98.347656 C 180.582031 98.347656 181.253906 98.234375 182.082031 98.234375 C 184.066406 101.726562 182.929688 104.113281 182.355469 104.992188 C 181.621094 106.082031 180.5 106.753906 179.621094 106.628906 C 177.527344 106.308594 176.503906 104.929688 176.390625 102.269531 C 176.261719 99.261719 175.65625 98.074219 173.753906 95.769531 C 172.472656 94.214844 172.375 92.488281 172.410156 91.734375 C 172.472656 91.734375 172.519531 91.734375 172.585938 91.734375 C 174.503906 91.621094 175.863281 90.339844 175.925781 90.277344 C 176.117188 90.085938 176.136719 89.78125 175.941406 89.570312 C 175.75 89.378906 175.429688 89.363281 175.238281 89.554688 C 175.222656 89.570312 173.734375 90.964844 171.847656 90.710938 C 170.503906 90.179688 169.003906 89.089844 168.539062 87.921875 C 168.28125 87.296875 168.21875 86.402344 168.410156 85.425781 C 168.714844 85.679688 169.035156 85.953125 169.371094 86.210938 C 170.058594 86.769531 170.890625 87.042969 171.722656 87.042969 C 172.808594 87.042969 173.878906 86.578125 174.617188 85.664062 C 175.910156 84.0625 175.671875 81.710938 174.085938 80.410156 C 173.832031 80.203125 173.59375 80.011719 173.367188 79.804688 C 176.023438 78.90625 177.8125 80.75 178.582031 81.550781 C 179.332031 82.574219 178.597656 84.574219 178.261719 85.265625 C 178.132812 85.503906 178.230469 85.808594 178.484375 85.9375 C 178.566406 85.984375 178.644531 86 178.742188 85.984375 C 178.917969 85.96875 179.078125 85.871094 179.15625 85.710938 C 179.207031 85.601562 180.339844 83.328125 179.734375 81.613281 C 180.933594 81.484375 183.105469 81.597656 185.136719 82.476562 L 185.523438 82.652344 C 187.953125 83.710938 189.886719 84.558594 194.683594 84.878906 C 197.195312 85.054688 198.234375 86.015625 198.683594 86.800781 C 199.003906 87.363281 199.050781 87.90625 199.019531 88.257812 C 198.15625 88.113281 197.164062 88.066406 195.851562 88.003906 C 195.308594 87.988281 194.699219 87.953125 194.027344 87.921875 C 191.167969 87.761719 188.769531 86.753906 188.753906 86.738281 C 188.496094 86.625 188.207031 86.753906 188.097656 86.992188 C 187.984375 87.25 188.113281 87.539062 188.351562 87.648438 C 188.449219 87.699219 190.925781 88.738281 193.964844 88.914062 C 194.636719 88.949219 195.246094 88.980469 195.804688 88.996094 C 197.675781 89.074219 198.90625 89.125 199.867188 89.507812 C 199.882812 89.507812 199.882812 89.507812 199.898438 89.523438 C 200.664062 89.828125 201.898438 90.53125 201.992188 91.941406 C 202.089844 94.28125 200.027344 94.871094 199.128906 95.015625 Z M 199.128906 95.015625 " fill-opacity="1" fill-rule="nonzero"/></g><path fill="#4b260c" d="M 114.695312 50.050781 C 114.503906 50.371094 114.597656 50.785156 114.917969 50.996094 L 114.933594 50.996094 C 115.09375 51.089844 115.269531 51.121094 115.464844 51.074219 C 115.640625 51.027344 115.796875 50.914062 115.878906 50.753906 C 116.070312 50.433594 115.976562 50.015625 115.640625 49.808594 C 115.304688 49.617188 114.886719 49.714844 114.695312 50.050781 Z M 114.695312 50.050781 " fill-opacity="1" fill-rule="nonzero"/><path fill="#4b260c" d="M 114.390625 47.792969 C 114.726562 48 115.160156 47.886719 115.351562 47.566406 C 115.542969 47.246094 115.445312 46.832031 115.109375 46.621094 C 114.792969 46.429688 114.359375 46.527344 114.167969 46.863281 C 113.960938 47.183594 114.070312 47.597656 114.390625 47.792969 Z M 114.390625 47.792969 " fill-opacity="1" fill-rule="nonzero"/><path fill="#4b260c" d="M 111.800781 47.488281 C 111.480469 47.296875 111.050781 47.390625 110.855469 47.726562 C 110.664062 48.046875 110.761719 48.464844 111.082031 48.671875 L 111.097656 48.671875 C 111.257812 48.769531 111.433594 48.800781 111.625 48.753906 C 111.800781 48.703125 111.960938 48.59375 112.039062 48.433594 C 112.214844 48.113281 112.121094 47.695312 111.800781 47.488281 Z M 111.800781 47.488281 " fill-opacity="1" fill-rule="nonzero"/><path fill="#4b260c" d="M 142.839844 46.445312 C 143.0625 46.476562 143.304688 46.429688 143.511719 46.335938 C 144.695312 45.789062 149.621094 43.453125 154.433594 45.019531 C 158.816406 46.398438 159.953125 48.207031 158.894531 46.125 C 157.839844 44.058594 155.617188 41.417969 150.386719 41.226562 C 145.289062 41.035156 143 43.132812 142.167969 44.574219 C 141.609375 45.566406 142.214844 46.335938 142.839844 46.445312 Z M 142.839844 46.445312 " fill-opacity="1" fill-rule="nonzero"/><path fill="#4b260c" d="M 149.972656 36.597656 C 150.085938 36.726562 150.277344 36.789062 150.46875 36.757812 C 152.675781 36.230469 155.777344 36.261719 158.113281 39.398438 C 158.273438 39.625 158.59375 39.671875 158.816406 39.496094 C 159.039062 39.335938 159.085938 39.015625 158.910156 38.792969 C 156.097656 35.011719 152.257812 35.269531 150.226562 35.765625 C 149.957031 35.828125 149.796875 36.101562 149.859375 36.375 C 149.875 36.453125 149.925781 36.535156 149.972656 36.597656 Z M 149.972656 36.597656 " fill-opacity="1" fill-rule="nonzero"/><path fill="#4b260c" d="M 131.214844 55.863281 C 131.550781 55.957031 131.933594 56.007812 132.316406 56.023438 C 132.558594 56.039062 132.8125 56.039062 133.070312 56.023438 C 134.316406 55.941406 135.386719 55.542969 136.027344 54.917969 C 136.621094 54.324219 136.8125 53.589844 136.605469 52.773438 C 136.460938 52.179688 136.109375 51.714844 135.546875 51.394531 C 134.8125 50.960938 133.726562 50.785156 132.316406 50.867188 C 130.957031 50.945312 129.773438 51.25 129.726562 51.265625 C 129.582031 51.296875 129.457031 51.394531 129.375 51.523438 C 129.296875 51.652344 129.28125 51.8125 129.3125 51.957031 C 129.375 52.226562 129.632812 52.402344 129.902344 52.386719 C 129.933594 52.386719 129.96875 52.386719 130.015625 52.371094 C 130.527344 52.242188 131.453125 52.066406 132.382812 52.019531 C 133.550781 51.957031 134.445312 52.082031 134.972656 52.386719 C 135.261719 52.5625 135.421875 52.773438 135.5 53.058594 C 135.613281 53.492188 135.515625 53.828125 135.226562 54.117188 C 134.796875 54.550781 133.964844 54.835938 133.003906 54.902344 C 132.476562 54.933594 131.949219 54.886719 131.503906 54.773438 C 129.441406 54.246094 128.945312 52.804688 128.929688 52.757812 C 128.847656 52.515625 128.609375 52.339844 128.351562 52.355469 C 128.304688 52.355469 128.257812 52.371094 128.207031 52.386719 C 127.90625 52.484375 127.746094 52.804688 127.839844 53.109375 C 127.855469 53.171875 128.527344 55.175781 131.214844 55.863281 Z M 131.214844 55.863281 " fill-opacity="1" fill-rule="nonzero"/><path fill="#4b260c" d="M 134.621094 74.085938 C 134.492188 74.007812 134.332031 73.972656 134.1875 74.039062 C 130.414062 75.398438 127.375 73.765625 126.242188 72.996094 C 126 72.835938 125.875 72.726562 125.875 72.726562 C 125.855469 72.710938 125.839844 72.710938 125.824219 72.691406 C 125.617188 72.550781 125.363281 72.597656 125.203125 72.773438 C 125.027344 72.980469 125.058594 73.269531 125.25 73.445312 C 125.296875 73.476562 125.472656 73.621094 125.761719 73.832031 C 126.992188 74.664062 130.320312 76.457031 134.507812 74.933594 C 134.75 74.839844 134.875 74.566406 134.796875 74.328125 C 134.765625 74.214844 134.699219 74.132812 134.621094 74.085938 Z M 134.621094 74.085938 " fill-opacity="1" fill-rule="nonzero"/><path fill="#4b260c" d="M 146.726562 65.535156 C 146.421875 65.328125 146.132812 65.167969 145.832031 65.054688 C 145.800781 65.039062 145.75 65.023438 145.71875 65.007812 C 143.785156 64.253906 141.960938 65.007812 141.929688 65.007812 C 141.816406 65.054688 141.722656 65.152344 141.671875 65.261719 C 141.625 65.375 141.625 65.503906 141.671875 65.632812 C 141.703125 65.710938 141.769531 65.792969 141.847656 65.839844 C 141.976562 65.933594 142.152344 65.953125 142.296875 65.886719 C 142.3125 65.886719 143.335938 65.472656 144.597656 65.679688 C 139.226562 70.003906 133.550781 71.429688 128.128906 69.777344 C 126.449219 69.265625 124.800781 68.464844 123.234375 67.394531 C 120.355469 65.40625 118.355469 62.910156 117.398438 60.988281 C 118.199219 60.84375 119.171875 60.828125 120.308594 61.035156 C 120.582031 61.082031 120.835938 60.90625 120.882812 60.636719 C 120.933594 60.363281 120.757812 60.105469 120.484375 60.058594 C 115.75 59.144531 113.558594 61.914062 113.480469 62.042969 C 113.320312 62.269531 113.351562 62.574219 113.574219 62.734375 C 113.671875 62.8125 113.785156 62.84375 113.894531 62.828125 C 114.039062 62.828125 114.183594 62.765625 114.28125 62.636719 C 114.328125 62.574219 115.015625 61.722656 116.46875 61.210938 C 117.476562 63.308594 119.621094 66.03125 122.722656 68.175781 C 124.355469 69.296875 126.082031 70.148438 127.839844 70.675781 C 131.964844 71.925781 138.394531 72.117188 145.671875 66.015625 C 145.847656 66.09375 146.023438 66.207031 146.183594 66.320312 C 146.628906 66.625 147.03125 67.039062 147.382812 67.554688 C 147.414062 67.601562 147.460938 67.648438 147.511719 67.679688 C 147.667969 67.792969 147.894531 67.792969 148.054688 67.679688 C 148.164062 67.601562 148.230469 67.503906 148.246094 67.375 C 148.261719 67.25 148.246094 67.121094 148.164062 67.023438 C 147.765625 66.414062 147.269531 65.902344 146.726562 65.535156 Z M 146.726562 65.535156 " fill-opacity="1" fill-rule="nonzero"/><g fill="#01753f" fill-opacity="1"><g transform="translate(15.382225, 120.888121)"><g><path d="M 16.046875 -6.34375 C 16.484375 -6.84375 16.765625 -7.21875 16.890625 -7.46875 C 17.023438 -7.726562 17.085938 -7.976562 17.078125 -8.21875 C 17.066406 -8.363281 17.015625 -8.59375 16.921875 -8.90625 C 16.710938 -9.695312 16.820312 -10.238281 17.25 -10.53125 C 17.769531 -10.894531 18.390625 -10.800781 19.109375 -10.25 C 19.835938 -9.695312 20.757812 -8.609375 21.875 -6.984375 C 22.75 -5.710938 23.265625 -4.78125 23.421875 -4.1875 C 23.578125 -3.59375 23.4375 -3.144531 23 -2.84375 C 22.757812 -2.675781 22.523438 -2.597656 22.296875 -2.609375 C 22.078125 -2.617188 21.804688 -2.707031 21.484375 -2.875 C 21.453125 -2.894531 21.40625 -2.925781 21.34375 -2.96875 C 20.9375 -3.238281 20.554688 -3.25 20.203125 -3 C 19.960938 -2.832031 19.429688 -2.289062 18.609375 -1.375 C 17.785156 -0.46875 16.8125 0.671875 15.6875 2.046875 C 15.539062 2.210938 15.335938 2.453125 15.078125 2.765625 C 13.898438 4.171875 13.359375 4.941406 13.453125 5.078125 C 13.484375 5.117188 13.554688 5.140625 13.671875 5.140625 C 13.785156 5.148438 13.945312 5.148438 14.15625 5.140625 L 23.15625 4.328125 C 23.65625 4.285156 24.066406 4.226562 24.390625 4.15625 C 24.722656 4.082031 24.945312 4.003906 25.0625 3.921875 C 25.3125 3.742188 25.394531 3.414062 25.3125 2.9375 C 25.289062 2.8125 25.28125 2.71875 25.28125 2.65625 C 25.226562 2.332031 25.234375 2.082031 25.296875 1.90625 C 25.359375 1.726562 25.484375 1.570312 25.671875 1.4375 C 26.148438 1.101562 26.6875 1.132812 27.28125 1.53125 C 27.882812 1.9375 28.597656 2.734375 29.421875 3.921875 C 30.097656 4.898438 30.492188 5.675781 30.609375 6.25 C 30.734375 6.820312 30.59375 7.25 30.1875 7.53125 C 29.757812 7.820312 29.003906 7.613281 27.921875 6.90625 C 27.753906 6.757812 27.414062 6.671875 26.90625 6.640625 C 26.394531 6.617188 25.800781 6.648438 25.125 6.734375 L 17.71875 7.453125 C 15.300781 7.691406 12.847656 7.953125 10.359375 8.234375 C 7.878906 8.523438 6.578125 8.664062 6.453125 8.65625 C 6.046875 8.675781 5.734375 8.640625 5.515625 8.546875 C 5.304688 8.460938 5.117188 8.304688 4.953125 8.078125 C 4.773438 7.816406 4.691406 7.578125 4.703125 7.359375 C 4.722656 7.148438 4.867188 6.84375 5.140625 6.4375 C 5.410156 6.039062 6.097656 5.175781 7.203125 3.84375 C 8.304688 2.507812 9.546875 1.054688 10.921875 -0.515625 Z M 16.046875 -6.34375 "/></g></g></g><g fill="#01753f" fill-opacity="1"><g transform="translate(29.02294, 139.996731)"><g><path d="M 8 0.15625 C 7.269531 0.96875 6.875 1.710938 6.8125 2.390625 C 6.757812 3.078125 7.039062 3.742188 7.65625 4.390625 C 7.914062 4.660156 8.207031 4.882812 8.53125 5.0625 C 8.863281 5.238281 9.316406 5.394531 9.890625 5.53125 C 10.203125 5.613281 10.613281 5.691406 11.125 5.765625 C 11.644531 5.835938 11.957031 5.925781 12.0625 6.03125 C 12.226562 6.21875 12.304688 6.484375 12.296875 6.828125 C 12.285156 7.179688 12.179688 7.457031 11.984375 7.65625 C 11.804688 7.820312 11.566406 7.929688 11.265625 7.984375 C 10.972656 8.035156 10.640625 8.03125 10.265625 7.96875 C 8.992188 7.757812 7.832031 7.394531 6.78125 6.875 C 5.738281 6.363281 4.816406 5.6875 4.015625 4.84375 C 2.722656 3.488281 2.085938 2.046875 2.109375 0.515625 C 2.128906 -1.003906 2.804688 -2.394531 4.140625 -3.65625 C 5.171875 -4.644531 6.367188 -5.382812 7.734375 -5.875 C 9.097656 -6.363281 10.488281 -6.554688 11.90625 -6.453125 C 13.09375 -6.367188 14.273438 -6.046875 15.453125 -5.484375 C 16.640625 -4.921875 17.65625 -4.195312 18.5 -3.3125 C 19.507812 -2.25 20.054688 -1.179688 20.140625 -0.109375 C 20.234375 0.953125 19.851562 1.890625 19 2.703125 C 17.726562 3.921875 16.078125 4.328125 14.046875 3.921875 C 12.023438 3.515625 10.109375 2.359375 8.296875 0.453125 Z M 15.84375 -2.65625 C 15.59375 -2.914062 15.28125 -3.09375 14.90625 -3.1875 C 14.53125 -3.289062 14.054688 -3.304688 13.484375 -3.234375 C 12.898438 -3.128906 12.265625 -2.921875 11.578125 -2.609375 C 10.890625 -2.304688 10.375 -1.988281 10.03125 -1.65625 C 9.9375 -1.570312 9.914062 -1.441406 9.96875 -1.265625 C 10.019531 -1.085938 10.128906 -0.914062 10.296875 -0.75 C 10.921875 -0.0820312 11.789062 0.25 12.90625 0.25 C 14.019531 0.25 14.941406 -0.0976562 15.671875 -0.796875 C 16.015625 -1.117188 16.203125 -1.429688 16.234375 -1.734375 C 16.265625 -2.046875 16.132812 -2.351562 15.84375 -2.65625 Z M 15.84375 -2.65625 "/></g></g></g><g fill="#01753f" fill-opacity="1"><g transform="translate(41.185042, 152.624281)"><g><path d="M 11.84375 2.203125 C 11.664062 2.835938 11.582031 3.296875 11.59375 3.578125 C 11.613281 3.867188 11.710938 4.085938 11.890625 4.234375 C 12.023438 4.335938 12.289062 4.429688 12.6875 4.515625 C 13.09375 4.597656 13.378906 4.707031 13.546875 4.84375 C 13.753906 5.007812 13.875 5.1875 13.90625 5.375 C 13.9375 5.570312 13.867188 5.769531 13.703125 5.96875 C 13.472656 6.25 13.078125 6.457031 12.515625 6.59375 C 11.960938 6.738281 11.203125 6.816406 10.234375 6.828125 C 9.410156 6.847656 8.738281 6.804688 8.21875 6.703125 C 7.707031 6.609375 7.316406 6.453125 7.046875 6.234375 C 6.691406 5.941406 6.492188 5.519531 6.453125 4.96875 C 6.421875 4.414062 6.554688 3.597656 6.859375 2.515625 L 7.46875 0.109375 L 5.15625 0.796875 C 3.78125 1.222656 2.789062 1.457031 2.1875 1.5 C 1.59375 1.550781 1.148438 1.460938 0.859375 1.234375 C 0.492188 0.941406 0.363281 0.332031 0.46875 -0.59375 C 0.582031 -1.519531 0.878906 -2.273438 1.359375 -2.859375 C 1.566406 -3.128906 1.785156 -3.273438 2.015625 -3.296875 C 2.253906 -3.316406 2.503906 -3.21875 2.765625 -3 C 2.867188 -2.914062 2.976562 -2.710938 3.09375 -2.390625 C 3.207031 -2.066406 3.328125 -1.851562 3.453125 -1.75 C 3.660156 -1.582031 4.015625 -1.5 4.515625 -1.5 C 5.023438 -1.507812 5.648438 -1.613281 6.390625 -1.8125 L 7.984375 -2.203125 L 8.84375 -4.90625 C 9.050781 -5.539062 9.160156 -6.03125 9.171875 -6.375 C 9.191406 -6.71875 9.113281 -6.960938 8.9375 -7.109375 C 8.832031 -7.191406 8.617188 -7.300781 8.296875 -7.4375 C 7.972656 -7.582031 7.738281 -7.710938 7.59375 -7.828125 C 7.40625 -7.972656 7.296875 -8.144531 7.265625 -8.34375 C 7.242188 -8.550781 7.304688 -8.742188 7.453125 -8.921875 C 7.617188 -9.117188 7.875 -9.265625 8.21875 -9.359375 C 8.5625 -9.460938 9.035156 -9.523438 9.640625 -9.546875 C 10.628906 -9.546875 11.5 -9.476562 12.25 -9.34375 C 13.007812 -9.21875 13.535156 -9.039062 13.828125 -8.8125 C 14.046875 -8.632812 14.1875 -8.382812 14.25 -8.0625 C 14.320312 -7.75 14.316406 -7.40625 14.234375 -7.03125 L 13.34375 -3.671875 L 16.328125 -4.421875 C 17.316406 -4.648438 17.984375 -4.757812 18.328125 -4.75 C 18.671875 -4.75 18.941406 -4.671875 19.140625 -4.515625 C 19.472656 -4.242188 19.59375 -3.632812 19.5 -2.6875 C 19.414062 -1.738281 19.125 -0.957031 18.625 -0.34375 C 18.414062 -0.0820312 18.203125 0.0859375 17.984375 0.171875 C 17.765625 0.253906 17.582031 0.238281 17.4375 0.125 C 17.207031 -0.0625 17 -0.375 16.8125 -0.8125 C 16.625 -1.25 16.492188 -1.5 16.421875 -1.5625 C 16.296875 -1.65625 16.132812 -1.703125 15.9375 -1.703125 C 15.75 -1.710938 15.425781 -1.671875 14.96875 -1.578125 L 12.703125 -1.109375 Z M 11.84375 2.203125 "/></g></g></g><g fill="#01753f" fill-opacity="1"><g transform="translate(54.503313, 163.078521)"><g><path d="M 17.8125 -12.21875 C 17.425781 -11.613281 16.8125 -11.273438 15.96875 -11.203125 C 15.132812 -11.140625 14.328125 -11.363281 13.546875 -11.875 C 12.847656 -12.320312 12.40625 -12.832031 12.21875 -13.40625 C 12.03125 -13.976562 12.101562 -14.523438 12.4375 -15.046875 C 12.875 -15.710938 13.515625 -16.082031 14.359375 -16.15625 C 15.203125 -16.226562 16.0625 -15.976562 16.9375 -15.40625 C 17.5625 -15 17.953125 -14.503906 18.109375 -13.921875 C 18.273438 -13.335938 18.175781 -12.769531 17.8125 -12.21875 Z M 1 -0.4375 C 1.164062 -0.695312 1.816406 -1.410156 2.953125 -2.578125 C 3.523438 -3.160156 3.976562 -3.628906 4.3125 -3.984375 C 5.039062 -4.765625 5.671875 -5.46875 6.203125 -6.09375 C 6.742188 -6.726562 7.128906 -7.222656 7.359375 -7.578125 C 7.628906 -7.992188 7.769531 -8.3125 7.78125 -8.53125 C 7.789062 -8.757812 7.660156 -9.023438 7.390625 -9.328125 C 7.378906 -9.359375 7.359375 -9.390625 7.328125 -9.421875 C 6.785156 -10.054688 6.628906 -10.546875 6.859375 -10.890625 C 7.023438 -11.148438 7.328125 -11.304688 7.765625 -11.359375 C 8.203125 -11.410156 8.789062 -11.351562 9.53125 -11.1875 C 10.46875 -10.976562 11.34375 -10.726562 12.15625 -10.4375 C 12.96875 -10.15625 13.585938 -9.867188 14.015625 -9.578125 C 14.265625 -9.421875 14.410156 -9.207031 14.453125 -8.9375 C 14.503906 -8.664062 14.4375 -8.390625 14.25 -8.109375 C 14.144531 -7.953125 13.726562 -7.484375 13 -6.703125 C 12.28125 -5.921875 11.648438 -5.21875 11.109375 -4.59375 C 10.128906 -3.5 9.316406 -2.566406 8.671875 -1.796875 C 8.023438 -1.023438 7.632812 -0.53125 7.5 -0.3125 C 7.320312 -0.0390625 7.242188 0.160156 7.265625 0.296875 C 7.296875 0.441406 7.4375 0.597656 7.6875 0.765625 C 7.71875 0.785156 7.773438 0.8125 7.859375 0.84375 C 7.941406 0.882812 8.003906 0.914062 8.046875 0.9375 C 8.335938 1.132812 8.515625 1.328125 8.578125 1.515625 C 8.648438 1.710938 8.617188 1.914062 8.484375 2.125 C 8.316406 2.394531 8.046875 2.585938 7.671875 2.703125 C 7.304688 2.828125 6.835938 2.882812 6.265625 2.875 C 5.429688 2.84375 4.582031 2.703125 3.71875 2.453125 C 2.851562 2.210938 2.140625 1.90625 1.578125 1.53125 C 1.117188 1.238281 0.84375 0.929688 0.75 0.609375 C 0.664062 0.285156 0.75 -0.0625 1 -0.4375 Z M 1 -0.4375 "/></g></g></g><g fill="#01753f" fill-opacity="1"><g transform="translate(62.66723, 168.361864)"><g><path d="M 10.703125 -5.40625 C 9.890625 -4.332031 9.164062 -3.351562 8.53125 -2.46875 C 7.90625 -1.582031 7.535156 -1.035156 7.421875 -0.828125 C 7.273438 -0.554688 7.222656 -0.351562 7.265625 -0.21875 C 7.304688 -0.09375 7.453125 0.0351562 7.703125 0.171875 C 7.734375 0.191406 7.785156 0.21875 7.859375 0.25 C 7.941406 0.28125 8.007812 0.3125 8.0625 0.34375 C 8.34375 0.5 8.523438 0.671875 8.609375 0.859375 C 8.691406 1.046875 8.675781 1.25 8.5625 1.46875 C 8.40625 1.738281 8.144531 1.953125 7.78125 2.109375 C 7.414062 2.273438 6.957031 2.367188 6.40625 2.390625 C 5.601562 2.453125 4.757812 2.382812 3.875 2.1875 C 3 1.988281 2.242188 1.71875 1.609375 1.375 C 1.171875 1.132812 0.898438 0.863281 0.796875 0.5625 C 0.703125 0.257812 0.765625 -0.0976562 0.984375 -0.515625 C 1.128906 -0.773438 1.640625 -1.4375 2.515625 -2.5 C 3.398438 -3.5625 4.132812 -4.460938 4.71875 -5.203125 C 6.1875 -7.097656 7.421875 -8.742188 8.421875 -10.140625 C 9.421875 -11.546875 10.109375 -12.585938 10.484375 -13.265625 C 10.773438 -13.796875 10.921875 -14.175781 10.921875 -14.40625 C 10.929688 -14.632812 10.800781 -14.878906 10.53125 -15.140625 C 10.5 -15.179688 10.457031 -15.226562 10.40625 -15.28125 C 9.863281 -15.84375 9.6875 -16.296875 9.875 -16.640625 C 10 -16.867188 10.203125 -17.035156 10.484375 -17.140625 C 10.773438 -17.253906 11.125 -17.296875 11.53125 -17.265625 C 12.59375 -17.203125 13.644531 -17.046875 14.6875 -16.796875 C 15.738281 -16.546875 16.550781 -16.257812 17.125 -15.9375 C 17.382812 -15.789062 17.535156 -15.582031 17.578125 -15.3125 C 17.628906 -15.039062 17.570312 -14.75 17.40625 -14.4375 C 17.320312 -14.28125 17.050781 -13.898438 16.59375 -13.296875 C 16.3125 -12.910156 16.082031 -12.59375 15.90625 -12.34375 Z M 10.703125 -5.40625 "/></g></g></g><g fill="#01753f" fill-opacity="1"><g transform="translate(71.320209, 173.094716)"><g><path d="M 10.28125 -6.203125 C 9.53125 -5.066406 8.878906 -4.03125 8.328125 -3.09375 C 7.773438 -2.164062 7.453125 -1.59375 7.359375 -1.375 C 7.234375 -1.101562 7.191406 -0.898438 7.234375 -0.765625 C 7.285156 -0.628906 7.4375 -0.503906 7.6875 -0.390625 C 7.726562 -0.378906 7.789062 -0.359375 7.875 -0.328125 C 7.957031 -0.304688 8.019531 -0.285156 8.0625 -0.265625 C 8.351562 -0.128906 8.546875 0.0234375 8.640625 0.203125 C 8.742188 0.390625 8.742188 0.59375 8.640625 0.8125 C 8.503906 1.101562 8.257812 1.34375 7.90625 1.53125 C 7.5625 1.71875 7.117188 1.84375 6.578125 1.90625 C 5.773438 2.019531 4.925781 2.015625 4.03125 1.890625 C 3.144531 1.765625 2.367188 1.550781 1.703125 1.25 C 1.242188 1.039062 0.953125 0.789062 0.828125 0.5 C 0.710938 0.207031 0.753906 -0.148438 0.953125 -0.578125 C 1.078125 -0.847656 1.535156 -1.546875 2.328125 -2.671875 C 3.128906 -3.796875 3.796875 -4.75 4.328125 -5.53125 C 5.640625 -7.539062 6.742188 -9.28125 7.640625 -10.75 C 8.535156 -12.21875 9.144531 -13.300781 9.46875 -14 C 9.71875 -14.5625 9.835938 -14.953125 9.828125 -15.171875 C 9.816406 -15.390625 9.664062 -15.628906 9.375 -15.890625 C 9.34375 -15.910156 9.300781 -15.945312 9.25 -16 C 8.65625 -16.519531 8.441406 -16.960938 8.609375 -17.328125 C 8.710938 -17.566406 8.90625 -17.75 9.1875 -17.875 C 9.46875 -18.007812 9.8125 -18.078125 10.21875 -18.078125 C 11.269531 -18.097656 12.328125 -18.019531 13.390625 -17.84375 C 14.460938 -17.664062 15.300781 -17.4375 15.90625 -17.15625 C 16.175781 -17.03125 16.34375 -16.835938 16.40625 -16.578125 C 16.46875 -16.316406 16.425781 -16.023438 16.28125 -15.703125 C 16.207031 -15.535156 15.96875 -15.132812 15.5625 -14.5 C 15.300781 -14.082031 15.09375 -13.75 14.9375 -13.5 Z M 10.28125 -6.203125 "/></g></g></g><g fill="#01753f" fill-opacity="1"><g transform="translate(80.558698, 177.497422)"><g><path d="M 12.625 -9.796875 C 11.769531 -10.085938 10.8125 -9.707031 9.75 -8.65625 C 8.695312 -7.601562 7.863281 -6.164062 7.25 -4.34375 C 6.8125 -3.019531 6.644531 -1.925781 6.75 -1.0625 C 6.851562 -0.207031 7.210938 0.316406 7.828125 0.515625 C 8.710938 0.816406 9.6875 0.414062 10.75 -0.6875 C 11.8125 -1.789062 12.671875 -3.332031 13.328125 -5.3125 C 13.722656 -6.5 13.851562 -7.492188 13.71875 -8.296875 C 13.59375 -9.097656 13.226562 -9.597656 12.625 -9.796875 Z M 2.140625 -5.90625 C 2.523438 -7.0625 3.097656 -8.066406 3.859375 -8.921875 C 4.617188 -9.785156 5.578125 -10.519531 6.734375 -11.125 C 7.898438 -11.75 9.125 -12.125 10.40625 -12.25 C 11.6875 -12.375 12.898438 -12.242188 14.046875 -11.859375 C 15.972656 -11.222656 17.320312 -10.140625 18.09375 -8.609375 C 18.875 -7.085938 18.945312 -5.375 18.3125 -3.46875 C 17.945312 -2.351562 17.375 -1.332031 16.59375 -0.40625 C 15.8125 0.519531 14.878906 1.28125 13.796875 1.875 C 12.660156 2.519531 11.460938 2.90625 10.203125 3.03125 C 8.953125 3.15625 7.707031 3.015625 6.46875 2.609375 C 4.582031 1.972656 3.234375 0.859375 2.421875 -0.734375 C 1.617188 -2.335938 1.523438 -4.0625 2.140625 -5.90625 Z M 2.140625 -5.90625 "/></g></g></g><g fill="#01753f" fill-opacity="1"><g transform="translate(98.089037, 183.031914)"><g><path d="M 8.703125 -8.25 C 8.234375 -6.988281 7.820312 -5.84375 7.46875 -4.8125 C 7.125 -3.78125 6.925781 -3.148438 6.875 -2.921875 C 6.8125 -2.617188 6.816406 -2.410156 6.890625 -2.296875 C 6.972656 -2.179688 7.148438 -2.097656 7.421875 -2.046875 C 7.460938 -2.035156 7.523438 -2.023438 7.609375 -2.015625 C 7.703125 -2.003906 7.773438 -1.992188 7.828125 -1.984375 C 8.140625 -1.921875 8.363281 -1.804688 8.5 -1.640625 C 8.632812 -1.484375 8.675781 -1.285156 8.625 -1.046875 C 8.550781 -0.742188 8.359375 -0.460938 8.046875 -0.203125 C 7.742188 0.0546875 7.335938 0.273438 6.828125 0.453125 C 6.078125 0.734375 5.25 0.90625 4.34375 0.96875 C 3.4375 1.039062 2.628906 1 1.921875 0.84375 C 1.429688 0.738281 1.097656 0.554688 0.921875 0.296875 C 0.742188 0.0351562 0.703125 -0.320312 0.796875 -0.78125 C 0.867188 -1.070312 1.171875 -1.847656 1.703125 -3.109375 C 2.242188 -4.378906 2.6875 -5.453125 3.03125 -6.328125 C 3.894531 -8.578125 4.601562 -10.507812 5.15625 -12.125 C 5.71875 -13.75 6.082031 -14.941406 6.25 -15.703125 C 6.375 -16.296875 6.40625 -16.703125 6.34375 -16.921875 C 6.28125 -17.148438 6.085938 -17.347656 5.765625 -17.515625 C 5.722656 -17.546875 5.664062 -17.578125 5.59375 -17.609375 C 4.914062 -18.003906 4.617188 -18.394531 4.703125 -18.78125 C 4.753906 -19.03125 4.898438 -19.242188 5.140625 -19.421875 C 5.390625 -19.609375 5.707031 -19.75 6.09375 -19.84375 C 7.132812 -20.09375 8.191406 -20.242188 9.265625 -20.296875 C 10.347656 -20.347656 11.207031 -20.304688 11.84375 -20.171875 C 12.144531 -20.109375 12.351562 -19.953125 12.46875 -19.703125 C 12.59375 -19.460938 12.617188 -19.164062 12.546875 -18.8125 C 12.515625 -18.644531 12.363281 -18.203125 12.09375 -17.484375 C 11.9375 -17.035156 11.800781 -16.664062 11.6875 -16.375 Z M 8.703125 -8.25 "/></g></g></g><g fill="#01753f" fill-opacity="1"><g transform="translate(108.056184, 185.353995)"><g><path d="M 10.234375 -12.265625 C 9.335938 -12.359375 8.484375 -11.78125 7.671875 -10.53125 C 6.859375 -9.28125 6.351562 -7.703125 6.15625 -5.796875 C 6.007812 -4.398438 6.078125 -3.289062 6.359375 -2.46875 C 6.648438 -1.65625 7.113281 -1.21875 7.75 -1.15625 C 8.675781 -1.0625 9.539062 -1.664062 10.34375 -2.96875 C 11.144531 -4.28125 11.65625 -5.972656 11.875 -8.046875 C 12.007812 -9.285156 11.925781 -10.28125 11.625 -11.03125 C 11.332031 -11.789062 10.867188 -12.203125 10.234375 -12.265625 Z M 0.828125 -6.234375 C 0.960938 -7.441406 1.304688 -8.546875 1.859375 -9.546875 C 2.410156 -10.554688 3.1875 -11.476562 4.1875 -12.3125 C 5.195312 -13.164062 6.3125 -13.789062 7.53125 -14.1875 C 8.757812 -14.582031 9.976562 -14.71875 11.1875 -14.59375 C 13.207031 -14.375 14.753906 -13.601562 15.828125 -12.28125 C 16.910156 -10.96875 17.347656 -9.3125 17.140625 -7.3125 C 17.015625 -6.132812 16.671875 -5.007812 16.109375 -3.9375 C 15.554688 -2.875 14.8125 -1.9375 13.875 -1.125 C 12.90625 -0.257812 11.820312 0.367188 10.625 0.765625 C 9.425781 1.160156 8.179688 1.289062 6.890625 1.15625 C 4.910156 0.945312 3.351562 0.148438 2.21875 -1.234375 C 1.09375 -2.628906 0.628906 -4.296875 0.828125 -6.234375 Z M 0.828125 -6.234375 "/></g></g></g><g fill="#01753f" fill-opacity="1"><g transform="translate(126.736395, 187.23345)"><g><path d="M 3.71875 0.734375 C 3.664062 0.921875 3.628906 1.066406 3.609375 1.171875 C 3.597656 1.285156 3.59375 1.394531 3.59375 1.5 C 3.625 2.238281 3.988281 2.800781 4.6875 3.1875 C 5.394531 3.570312 6.375 3.738281 7.625 3.6875 C 8.78125 3.644531 9.703125 3.421875 10.390625 3.015625 C 11.085938 2.617188 11.425781 2.128906 11.40625 1.546875 C 11.394531 1.210938 11.28125 0.96875 11.0625 0.8125 C 10.84375 0.664062 10.519531 0.601562 10.09375 0.625 C 9.863281 0.632812 9.320312 0.703125 8.46875 0.828125 C 7.625 0.953125 6.894531 1.023438 6.28125 1.046875 C 5.90625 1.054688 5.515625 1.035156 5.109375 0.984375 C 4.703125 0.929688 4.238281 0.847656 3.71875 0.734375 Z M 5.65625 -9.4375 C 5.6875 -8.5 5.894531 -7.796875 6.28125 -7.328125 C 6.664062 -6.867188 7.21875 -6.65625 7.9375 -6.6875 C 8.820312 -6.71875 9.5625 -7.179688 10.15625 -8.078125 C 10.75 -8.984375 11.023438 -10.078125 10.984375 -11.359375 C 10.953125 -12.210938 10.738281 -12.878906 10.34375 -13.359375 C 9.945312 -13.847656 9.410156 -14.078125 8.734375 -14.046875 C 7.816406 -14.015625 7.0625 -13.554688 6.46875 -12.671875 C 5.875 -11.796875 5.601562 -10.71875 5.65625 -9.4375 Z M 1.890625 0.0625 C 1.398438 -0.164062 1.03125 -0.472656 0.78125 -0.859375 C 0.53125 -1.253906 0.394531 -1.722656 0.375 -2.265625 C 0.34375 -2.984375 0.539062 -3.613281 0.96875 -4.15625 C 1.394531 -4.707031 2.09375 -5.21875 3.0625 -5.6875 C 2.445312 -6.113281 1.960938 -6.671875 1.609375 -7.359375 C 1.265625 -8.046875 1.078125 -8.820312 1.046875 -9.6875 C 0.972656 -11.476562 1.613281 -12.957031 2.96875 -14.125 C 4.332031 -15.289062 6.171875 -15.921875 8.484375 -16.015625 C 8.992188 -16.035156 9.546875 -16.023438 10.140625 -15.984375 C 10.742188 -15.953125 11.382812 -15.882812 12.0625 -15.78125 C 12.46875 -16.007812 12.847656 -16.285156 13.203125 -16.609375 C 13.566406 -16.929688 13.925781 -17.316406 14.28125 -17.765625 C 14.664062 -17.472656 14.957031 -17.191406 15.15625 -16.921875 C 15.363281 -16.648438 15.472656 -16.390625 15.484375 -16.140625 C 15.492188 -15.867188 15.394531 -15.578125 15.1875 -15.265625 C 14.988281 -14.960938 14.679688 -14.640625 14.265625 -14.296875 C 14.660156 -13.835938 14.960938 -13.347656 15.171875 -12.828125 C 15.390625 -12.304688 15.507812 -11.757812 15.53125 -11.1875 C 15.59375 -9.332031 14.929688 -7.8125 13.546875 -6.625 C 12.171875 -5.4375 10.300781 -4.796875 7.9375 -4.703125 C 7.375 -4.679688 6.828125 -4.703125 6.296875 -4.765625 C 5.765625 -4.835938 5.222656 -4.945312 4.671875 -5.09375 C 4.503906 -4.851562 4.382812 -4.628906 4.3125 -4.421875 C 4.238281 -4.222656 4.203125 -4.050781 4.203125 -3.90625 C 4.210938 -3.5 4.382812 -3.195312 4.71875 -3 C 5.050781 -2.8125 5.53125 -2.726562 6.15625 -2.75 C 6.757812 -2.769531 7.6875 -2.851562 8.9375 -3 C 10.1875 -3.15625 11.128906 -3.242188 11.765625 -3.265625 C 12.890625 -3.304688 13.765625 -3.054688 14.390625 -2.515625 C 15.015625 -1.984375 15.347656 -1.195312 15.390625 -0.15625 C 15.453125 1.53125 14.664062 2.9375 13.03125 4.0625 C 11.394531 5.1875 9.210938 5.800781 6.484375 5.90625 C 4.648438 5.976562 3.1875 5.722656 2.09375 5.140625 C 1 4.554688 0.429688 3.734375 0.390625 2.671875 C 0.378906 2.253906 0.503906 1.816406 0.765625 1.359375 C 1.023438 0.910156 1.398438 0.476562 1.890625 0.0625 Z M 1.890625 0.0625 "/></g></g></g><g fill="#01753f" fill-opacity="1"><g transform="translate(145.453254, 186.236095)"><g><path d="M 5.265625 -20.953125 C 5.367188 -20.242188 5.128906 -19.582031 4.546875 -18.96875 C 3.960938 -18.363281 3.207031 -17.992188 2.28125 -17.859375 C 1.46875 -17.742188 0.800781 -17.832031 0.28125 -18.125 C -0.238281 -18.425781 -0.546875 -18.890625 -0.640625 -19.515625 C -0.753906 -20.304688 -0.519531 -21.003906 0.0625 -21.609375 C 0.644531 -22.222656 1.453125 -22.609375 2.484375 -22.765625 C 3.222656 -22.867188 3.847656 -22.753906 4.359375 -22.421875 C 4.867188 -22.097656 5.171875 -21.609375 5.265625 -20.953125 Z M 0.453125 -1 C 0.410156 -1.300781 0.425781 -2.257812 0.5 -3.875 C 0.539062 -4.695312 0.570312 -5.347656 0.59375 -5.828125 C 0.625 -6.910156 0.628906 -7.863281 0.609375 -8.6875 C 0.597656 -9.507812 0.5625 -10.128906 0.5 -10.546875 C 0.425781 -11.035156 0.320312 -11.367188 0.1875 -11.546875 C 0.0507812 -11.722656 -0.222656 -11.835938 -0.640625 -11.890625 C -0.671875 -11.898438 -0.703125 -11.90625 -0.734375 -11.90625 C -1.566406 -12.03125 -2.015625 -12.296875 -2.078125 -12.703125 C -2.117188 -13.003906 -1.992188 -13.316406 -1.703125 -13.640625 C -1.410156 -13.972656 -0.925781 -14.328125 -0.25 -14.703125 C 0.582031 -15.171875 1.394531 -15.5625 2.1875 -15.875 C 2.988281 -16.1875 3.648438 -16.382812 4.171875 -16.46875 C 4.453125 -16.507812 4.695312 -16.441406 4.90625 -16.265625 C 5.125 -16.097656 5.257812 -15.847656 5.3125 -15.515625 C 5.34375 -15.328125 5.34375 -14.695312 5.3125 -13.625 C 5.28125 -12.5625 5.269531 -11.613281 5.28125 -10.78125 C 5.28125 -9.320312 5.289062 -8.085938 5.3125 -7.078125 C 5.34375 -6.078125 5.378906 -5.445312 5.421875 -5.1875 C 5.460938 -4.863281 5.539062 -4.660156 5.65625 -4.578125 C 5.78125 -4.503906 5.984375 -4.488281 6.265625 -4.53125 C 6.304688 -4.539062 6.367188 -4.554688 6.453125 -4.578125 C 6.546875 -4.597656 6.613281 -4.613281 6.65625 -4.625 C 7.007812 -4.675781 7.273438 -4.648438 7.453125 -4.546875 C 7.628906 -4.441406 7.734375 -4.265625 7.765625 -4.015625 C 7.816406 -3.703125 7.742188 -3.378906 7.546875 -3.046875 C 7.347656 -2.710938 7.035156 -2.363281 6.609375 -2 C 5.953125 -1.457031 5.21875 -0.992188 4.40625 -0.609375 C 3.601562 -0.234375 2.867188 0.00390625 2.203125 0.109375 C 1.660156 0.179688 1.25 0.128906 0.96875 -0.046875 C 0.695312 -0.234375 0.523438 -0.550781 0.453125 -1 Z M 0.453125 -1 "/></g></g></g><g fill="#01753f" fill-opacity="1"><g transform="translate(155.286517, 184.853232)"><g><path d="M 4.96875 -3.234375 C 5.507812 -3.359375 5.898438 -3.59375 6.140625 -3.9375 C 6.390625 -4.28125 6.457031 -4.691406 6.34375 -5.171875 C 6.21875 -5.679688 5.484375 -6.179688 4.140625 -6.671875 C 3.828125 -6.785156 3.578125 -6.882812 3.390625 -6.96875 C 1.710938 -7.59375 0.5625 -8.191406 -0.0625 -8.765625 C -0.695312 -9.347656 -1.125 -10.085938 -1.34375 -10.984375 C -1.675781 -12.316406 -1.421875 -13.535156 -0.578125 -14.640625 C 0.253906 -15.753906 1.519531 -16.519531 3.21875 -16.9375 C 3.84375 -17.082031 4.492188 -17.164062 5.171875 -17.1875 C 5.847656 -17.207031 6.53125 -17.160156 7.21875 -17.046875 C 7.71875 -16.960938 8.054688 -16.828125 8.234375 -16.640625 C 8.421875 -16.453125 8.578125 -16.097656 8.703125 -15.578125 C 8.878906 -14.835938 8.90625 -14.242188 8.78125 -13.796875 C 8.65625 -13.347656 8.378906 -13.070312 7.953125 -12.96875 C 7.515625 -12.863281 7.0625 -13.070312 6.59375 -13.59375 C 6.425781 -13.757812 6.296875 -13.894531 6.203125 -14 C 5.890625 -14.3125 5.554688 -14.523438 5.203125 -14.640625 C 4.847656 -14.753906 4.5 -14.769531 4.15625 -14.6875 C 3.738281 -14.582031 3.425781 -14.382812 3.21875 -14.09375 C 3.007812 -13.800781 2.953125 -13.457031 3.046875 -13.0625 C 3.203125 -12.4375 3.945312 -11.894531 5.28125 -11.4375 C 5.507812 -11.363281 5.6875 -11.3125 5.8125 -11.28125 C 7.445312 -10.726562 8.570312 -10.160156 9.1875 -9.578125 C 9.800781 -9.003906 10.226562 -8.222656 10.46875 -7.234375 C 10.820312 -5.773438 10.539062 -4.46875 9.625 -3.3125 C 8.71875 -2.15625 7.316406 -1.347656 5.421875 -0.890625 C 3.898438 -0.523438 2.515625 -0.488281 1.265625 -0.78125 C 0.0234375 -1.070312 -0.675781 -1.5625 -0.84375 -2.25 C -1.050781 -3.082031 -1.054688 -3.8125 -0.859375 -4.4375 C -0.671875 -5.0625 -0.34375 -5.429688 0.125 -5.546875 C 0.53125 -5.640625 0.960938 -5.40625 1.421875 -4.84375 C 1.640625 -4.582031 1.820312 -4.375 1.96875 -4.21875 C 2.382812 -3.789062 2.859375 -3.488281 3.390625 -3.3125 C 3.929688 -3.132812 4.457031 -3.109375 4.96875 -3.234375 Z M 4.96875 -3.234375 "/></g></g></g><g fill="#01753f" fill-opacity="1"><g transform="translate(169.569944, 181.256403)"><g><path d="M -1.9375 -13.09375 L -3.75 -12.453125 C -3.914062 -12.398438 -4.035156 -12.382812 -4.109375 -12.40625 C -4.191406 -12.425781 -4.25 -12.484375 -4.28125 -12.578125 L -4.34375 -12.765625 L -4.421875 -13.296875 C -4.546875 -13.960938 -3.898438 -14.679688 -2.484375 -15.453125 L -2.421875 -15.5 C -2.429688 -15.632812 -2.445312 -15.816406 -2.46875 -16.046875 C -2.59375 -17.117188 -2.648438 -17.8125 -2.640625 -18.125 C -2.640625 -18.3125 -2.570312 -18.492188 -2.4375 -18.671875 C -2.3125 -18.859375 -2.082031 -19.066406 -1.75 -19.296875 C -1.5625 -19.441406 -1.265625 -19.613281 -0.859375 -19.8125 C -0.460938 -20.007812 -0.0546875 -20.179688 0.359375 -20.328125 C 0.648438 -20.429688 0.878906 -20.453125 1.046875 -20.390625 C 1.210938 -20.335938 1.335938 -20.195312 1.421875 -19.96875 C 1.453125 -19.875 1.472656 -19.800781 1.484375 -19.75 C 1.492188 -19.707031 1.503906 -19.65625 1.515625 -19.59375 L 2.09375 -16.90625 L 5.25 -18.015625 C 5.4375 -18.085938 5.5625 -18.113281 5.625 -18.09375 C 5.695312 -18.070312 5.753906 -18.007812 5.796875 -17.90625 L 5.84375 -17.75 L 6.109375 -16.53125 C 6.140625 -16.34375 6.125 -16.191406 6.0625 -16.078125 C 6.007812 -15.960938 5.890625 -15.875 5.703125 -15.8125 L 2.96875 -14.84375 C 2.800781 -14.78125 2.695312 -14.707031 2.65625 -14.625 C 2.613281 -14.550781 2.628906 -14.367188 2.703125 -14.078125 L 4.140625 -6.890625 C 4.148438 -6.773438 4.171875 -6.65625 4.203125 -6.53125 C 4.234375 -6.40625 4.28125 -6.253906 4.34375 -6.078125 C 4.507812 -5.617188 4.765625 -5.316406 5.109375 -5.171875 C 5.453125 -5.023438 5.878906 -5.039062 6.390625 -5.21875 C 6.734375 -5.34375 7.128906 -5.582031 7.578125 -5.9375 C 8.023438 -6.289062 8.328125 -6.492188 8.484375 -6.546875 C 8.679688 -6.617188 8.863281 -6.601562 9.03125 -6.5 C 9.207031 -6.40625 9.335938 -6.253906 9.421875 -6.046875 C 9.503906 -5.804688 9.503906 -5.550781 9.421875 -5.28125 C 9.335938 -5.007812 9.164062 -4.726562 8.90625 -4.4375 C 8.363281 -3.75 7.648438 -3.085938 6.765625 -2.453125 C 5.890625 -1.828125 5.050781 -1.375 4.25 -1.09375 C 3.238281 -0.726562 2.378906 -0.707031 1.671875 -1.03125 C 0.960938 -1.351562 0.4375 -2.003906 0.09375 -2.984375 C -0.0390625 -3.359375 -0.226562 -4.140625 -0.46875 -5.328125 L -0.46875 -5.359375 Z M -1.9375 -13.09375 "/></g></g></g><g fill="#01753f" fill-opacity="1"><g transform="translate(181.145677, 177.162292)"><g><path d="M 4.21875 -4.171875 C 4.71875 -4.410156 5.050781 -4.71875 5.21875 -5.09375 C 5.394531 -5.476562 5.378906 -5.890625 5.171875 -6.328125 C 4.941406 -6.804688 4.117188 -7.148438 2.703125 -7.359375 C 2.367188 -7.410156 2.101562 -7.457031 1.90625 -7.5 C 0.132812 -7.78125 -1.113281 -8.140625 -1.84375 -8.578125 C -2.582031 -9.015625 -3.148438 -9.648438 -3.546875 -10.484375 C -4.140625 -11.734375 -4.140625 -12.976562 -3.546875 -14.21875 C -2.953125 -15.46875 -1.863281 -16.46875 -0.28125 -17.21875 C 0.300781 -17.5 0.921875 -17.71875 1.578125 -17.875 C 2.242188 -18.03125 2.925781 -18.125 3.625 -18.15625 C 4.125 -18.164062 4.484375 -18.097656 4.703125 -17.953125 C 4.921875 -17.816406 5.144531 -17.503906 5.375 -17.015625 C 5.695312 -16.328125 5.835938 -15.75 5.796875 -15.28125 C 5.765625 -14.820312 5.550781 -14.5 5.15625 -14.3125 C 4.75 -14.113281 4.265625 -14.222656 3.703125 -14.640625 C 3.515625 -14.773438 3.359375 -14.882812 3.234375 -14.96875 C 2.867188 -15.207031 2.5 -15.34375 2.125 -15.375 C 1.757812 -15.414062 1.421875 -15.363281 1.109375 -15.21875 C 0.710938 -15.03125 0.441406 -14.769531 0.296875 -14.4375 C 0.148438 -14.113281 0.164062 -13.769531 0.34375 -13.40625 C 0.625 -12.820312 1.457031 -12.441406 2.84375 -12.265625 C 3.101562 -12.242188 3.296875 -12.226562 3.421875 -12.21875 C 5.117188 -12.007812 6.328125 -11.6875 7.046875 -11.25 C 7.773438 -10.8125 8.359375 -10.128906 8.796875 -9.203125 C 9.441406 -7.847656 9.429688 -6.507812 8.765625 -5.1875 C 8.109375 -3.875 6.898438 -2.800781 5.140625 -1.96875 C 3.734375 -1.300781 2.382812 -0.984375 1.09375 -1.015625 C -0.1875 -1.046875 -0.976562 -1.378906 -1.28125 -2.015625 C -1.65625 -2.796875 -1.8125 -3.507812 -1.75 -4.15625 C -1.6875 -4.8125 -1.4375 -5.242188 -1 -5.453125 C -0.625 -5.640625 -0.15625 -5.5 0.40625 -5.03125 C 0.675781 -4.8125 0.894531 -4.648438 1.0625 -4.546875 C 1.5625 -4.191406 2.09375 -3.984375 2.65625 -3.921875 C 3.21875 -3.867188 3.738281 -3.953125 4.21875 -4.171875 Z M 4.21875 -4.171875 "/></g></g></g><g fill="#01753f" fill-opacity="1"><g transform="translate(194.292634, 170.762442)"><g><path d="M -0.546875 -2.484375 C -0.960938 -3.191406 -1.070312 -3.914062 -0.875 -4.65625 C -0.6875 -5.394531 -0.242188 -5.972656 0.453125 -6.390625 C 1.148438 -6.796875 1.867188 -6.898438 2.609375 -6.703125 C 3.359375 -6.515625 3.9375 -6.070312 4.34375 -5.375 C 4.75 -4.695312 4.859375 -3.984375 4.671875 -3.234375 C 4.484375 -2.484375 4.046875 -1.90625 3.359375 -1.5 C 2.671875 -1.09375 1.945312 -0.984375 1.1875 -1.171875 C 0.4375 -1.367188 -0.140625 -1.804688 -0.546875 -2.484375 Z M -0.546875 -2.484375 "/></g></g></g><g fill="#01753f" fill-opacity="1"><g transform="translate(202.839428, 165.837208)"><g><path d="M -3.15625 -4.625 C -3.9375 -5.695312 -4.488281 -6.878906 -4.8125 -8.171875 C -5.132812 -9.460938 -5.203125 -10.757812 -5.015625 -12.0625 C -4.828125 -13.375 -4.390625 -14.609375 -3.703125 -15.765625 C -3.015625 -16.929688 -2.164062 -17.882812 -1.15625 -18.625 C -0.0390625 -19.445312 1.054688 -19.832031 2.140625 -19.78125 C 3.222656 -19.726562 4.09375 -19.253906 4.75 -18.359375 C 5.25 -17.691406 5.460938 -17.019531 5.390625 -16.34375 C 5.328125 -15.675781 5 -15.117188 4.40625 -14.671875 C 3.84375 -14.265625 3.320312 -14.09375 2.84375 -14.15625 C 2.375 -14.226562 1.9375 -14.535156 1.53125 -15.078125 C 1.457031 -15.171875 1.363281 -15.320312 1.25 -15.53125 C 1.132812 -15.738281 1.039062 -15.894531 0.96875 -16 C 0.800781 -16.226562 0.582031 -16.363281 0.3125 -16.40625 C 0.0507812 -16.445312 -0.1875 -16.382812 -0.40625 -16.21875 C -1.226562 -15.613281 -1.539062 -14.566406 -1.34375 -13.078125 C -1.144531 -11.597656 -0.457031 -10.054688 0.71875 -8.453125 C 1.5 -7.390625 2.265625 -6.742188 3.015625 -6.515625 C 3.765625 -6.285156 4.535156 -6.460938 5.328125 -7.046875 C 5.628906 -7.265625 5.882812 -7.523438 6.09375 -7.828125 C 6.3125 -8.140625 6.523438 -8.566406 6.734375 -9.109375 C 6.847656 -9.410156 6.972656 -9.8125 7.109375 -10.3125 C 7.253906 -10.820312 7.382812 -11.117188 7.5 -11.203125 C 7.695312 -11.347656 7.96875 -11.390625 8.3125 -11.328125 C 8.664062 -11.273438 8.925781 -11.140625 9.09375 -10.921875 C 9.226562 -10.722656 9.304688 -10.472656 9.328125 -10.171875 C 9.347656 -9.878906 9.304688 -9.546875 9.203125 -9.171875 C 8.828125 -7.941406 8.316406 -6.835938 7.671875 -5.859375 C 7.023438 -4.890625 6.238281 -4.0625 5.3125 -3.375 C 3.789062 -2.257812 2.273438 -1.8125 0.765625 -2.03125 C -0.734375 -2.25 -2.039062 -3.113281 -3.15625 -4.625 Z M -3.15625 -4.625 "/></g></g></g><g fill="#01753f" fill-opacity="1"><g transform="translate(216.48963, 155.747942)"><g><path d="M -2.84375 -15.71875 C -3.488281 -15.101562 -3.585938 -14.078125 -3.140625 -12.640625 C -2.703125 -11.210938 -1.816406 -9.8125 -0.484375 -8.4375 C 0.484375 -7.425781 1.367188 -6.769531 2.171875 -6.46875 C 2.984375 -6.175781 3.617188 -6.253906 4.078125 -6.703125 C 4.742188 -7.347656 4.835938 -8.394531 4.359375 -9.84375 C 3.878906 -11.300781 2.914062 -12.78125 1.46875 -14.28125 C 0.59375 -15.175781 -0.226562 -15.75 -1 -16 C -1.769531 -16.257812 -2.382812 -16.164062 -2.84375 -15.71875 Z M -4.234375 -4.640625 C -5.085938 -5.515625 -5.71875 -6.484375 -6.125 -7.546875 C -6.539062 -8.617188 -6.75 -9.8125 -6.75 -11.125 C -6.75 -12.445312 -6.507812 -13.703125 -6.03125 -14.890625 C -5.5625 -16.078125 -4.890625 -17.09375 -4.015625 -17.9375 C -2.554688 -19.351562 -0.972656 -20.050781 0.734375 -20.03125 C 2.441406 -20.007812 3.992188 -19.28125 5.390625 -17.84375 C 6.210938 -16.988281 6.851562 -16 7.3125 -14.875 C 7.769531 -13.757812 8.015625 -12.59375 8.046875 -11.375 C 8.085938 -10.0625 7.875 -8.820312 7.40625 -7.65625 C 6.945312 -6.488281 6.25 -5.453125 5.3125 -4.546875 C 3.875 -3.160156 2.257812 -2.476562 0.46875 -2.5 C -1.3125 -2.53125 -2.878906 -3.242188 -4.234375 -4.640625 Z M -4.234375 -4.640625 "/></g></g></g><g fill="#01753f" fill-opacity="1"><g transform="translate(230.462209, 142.566573)"><g><path d="M -8.40625 -13.75 L -7.765625 -13.4375 C -7.453125 -13.289062 -7.226562 -13.195312 -7.09375 -13.15625 C -6.957031 -13.113281 -6.875 -13.113281 -6.84375 -13.15625 C -6.832031 -13.164062 -6.832031 -13.347656 -6.84375 -13.703125 C -6.863281 -14.066406 -6.863281 -14.425781 -6.84375 -14.78125 C -6.8125 -15.644531 -6.695312 -16.398438 -6.5 -17.046875 C -6.300781 -17.691406 -6.023438 -18.265625 -5.671875 -18.765625 C -5.285156 -19.296875 -4.859375 -19.671875 -4.390625 -19.890625 C -3.929688 -20.117188 -3.378906 -20.207031 -2.734375 -20.15625 C -2.617188 -20.144531 -2.457031 -20.128906 -2.25 -20.109375 C -1.945312 -20.066406 -1.773438 -20.070312 -1.734375 -20.125 C -1.710938 -20.164062 -1.703125 -20.441406 -1.703125 -20.953125 C -1.710938 -21.304688 -1.710938 -21.597656 -1.703125 -21.828125 C -1.679688 -22.671875 -1.570312 -23.4375 -1.375 -24.125 C -1.175781 -24.8125 -0.898438 -25.398438 -0.546875 -25.890625 C 0.140625 -26.835938 0.9375 -27.335938 1.84375 -27.390625 C 2.757812 -27.453125 3.800781 -27.066406 4.96875 -26.234375 C 5.84375 -25.597656 6.84375 -24.71875 7.96875 -23.59375 C 9.09375 -22.46875 9.835938 -21.773438 10.203125 -21.515625 C 10.429688 -21.347656 10.617188 -21.269531 10.765625 -21.28125 C 10.910156 -21.289062 11.0625 -21.40625 11.21875 -21.625 C 11.238281 -21.65625 11.265625 -21.707031 11.296875 -21.78125 C 11.335938 -21.851562 11.375 -21.910156 11.40625 -21.953125 C 11.53125 -22.128906 11.65625 -22.226562 11.78125 -22.25 C 11.914062 -22.269531 12.054688 -22.222656 12.203125 -22.109375 C 12.472656 -21.910156 12.675781 -21.628906 12.8125 -21.265625 C 12.957031 -20.898438 13.03125 -20.445312 13.03125 -19.90625 C 13.03125 -19.101562 12.925781 -18.328125 12.71875 -17.578125 C 12.507812 -16.828125 12.226562 -16.210938 11.875 -15.734375 C 11.488281 -15.191406 11.128906 -14.867188 10.796875 -14.765625 C 10.472656 -14.660156 10.113281 -14.75 9.71875 -15.03125 C 9.445312 -15.226562 8.957031 -15.707031 8.25 -16.46875 C 7.90625 -16.832031 7.640625 -17.117188 7.453125 -17.328125 C 6.441406 -18.367188 5.546875 -19.25 4.765625 -19.96875 C 3.992188 -20.695312 3.421875 -21.195312 3.046875 -21.46875 C 2.546875 -21.832031 2.109375 -22.015625 1.734375 -22.015625 C 1.359375 -22.023438 1.046875 -21.859375 0.796875 -21.515625 C 0.273438 -20.785156 0.328125 -19.898438 0.953125 -18.859375 C 1.578125 -17.828125 2.882812 -16.472656 4.875 -14.796875 C 5.0625 -14.628906 5.316406 -14.410156 5.640625 -14.140625 C 6.859375 -13.148438 7.519531 -12.472656 7.625 -12.109375 C 7.71875 -11.734375 7.640625 -11.164062 7.390625 -10.40625 C 7.148438 -9.65625 6.796875 -8.945312 6.328125 -8.28125 C 6.085938 -7.957031 5.84375 -7.765625 5.59375 -7.703125 C 5.34375 -7.640625 5.0625 -7.71875 4.75 -7.9375 C 4.59375 -8.050781 4.148438 -8.488281 3.421875 -9.25 C 2.992188 -9.675781 2.648438 -10.023438 2.390625 -10.296875 C 0.941406 -11.765625 -0.0625 -12.765625 -0.625 -13.296875 C -1.195312 -13.835938 -1.648438 -14.226562 -1.984375 -14.46875 C -2.484375 -14.832031 -2.921875 -15.007812 -3.296875 -15 C -3.679688 -15 -4 -14.828125 -4.25 -14.484375 C -4.769531 -13.753906 -4.71875 -12.875 -4.09375 -11.84375 C -3.476562 -10.8125 -2.171875 -9.453125 -0.171875 -7.765625 C 0.015625 -7.609375 0.269531 -7.390625 0.59375 -7.109375 C 1.800781 -6.117188 2.457031 -5.441406 2.5625 -5.078125 C 2.675781 -4.710938 2.601562 -4.144531 2.34375 -3.375 C 2.082031 -2.601562 1.707031 -1.878906 1.21875 -1.203125 C 0.988281 -0.878906 0.757812 -0.6875 0.53125 -0.625 C 0.3125 -0.570312 0.0664062 -0.644531 -0.203125 -0.84375 C -0.503906 -1.0625 -1.21875 -1.769531 -2.34375 -2.96875 C -2.957031 -3.613281 -3.441406 -4.128906 -3.796875 -4.515625 C -4.671875 -5.429688 -5.441406 -6.203125 -6.109375 -6.828125 C -6.773438 -7.453125 -7.285156 -7.894531 -7.640625 -8.15625 C -8.078125 -8.46875 -8.503906 -8.398438 -8.921875 -7.953125 C -8.929688 -7.929688 -8.941406 -7.921875 -8.953125 -7.921875 C -8.984375 -7.890625 -9.023438 -7.847656 -9.078125 -7.796875 C -9.703125 -7.285156 -10.160156 -7.140625 -10.453125 -7.359375 C -10.609375 -7.472656 -10.722656 -7.640625 -10.796875 -7.859375 C -10.867188 -8.085938 -10.890625 -8.378906 -10.859375 -8.734375 C -10.847656 -8.960938 -10.804688 -9.234375 -10.734375 -9.546875 C -10.671875 -9.867188 -10.578125 -10.296875 -10.453125 -10.828125 C -10.253906 -11.492188 -10.054688 -12.078125 -9.859375 -12.578125 C -9.660156 -13.085938 -9.503906 -13.425781 -9.390625 -13.59375 C -9.296875 -13.71875 -9.15625 -13.796875 -8.96875 -13.828125 C -8.78125 -13.859375 -8.59375 -13.832031 -8.40625 -13.75 Z M -8.40625 -13.75 "/></g></g></g></svg>